<svg xmlns="http://www.w3.org/2000/svg" xmlns:xlink="http://www.w3.org/1999/xlink" viewBox="0 0 590.13 999.75"><defs><style>.cls-1{mask:url(#mask);}.cls-2{mix-blend-mode:multiply;fill:url(#linear-gradient);}.cls-3{mask:url(#mask-2);}.cls-4{fill:url(#linear-gradient-2);}.cls-5{fill:#eea886;}.cls-6{fill:#353a3d;}.cls-7{fill:#82817f;}.cls-8{fill:#242853;}.cls-9{fill:#decbc4;}.cls-10{fill:#4a5156;}.cls-11{fill:#a77961;}.cls-12{fill:#262f3c;}.cls-13{fill:#b3a5a0;}.cls-14{fill:#364b8a;}.cls-15{fill:#f6e3da;}.cls-16{fill:#e73433;}.cls-17{fill:#ad9f99;}.cls-18{fill:#6a747b;}.cls-19{filter:url(#luminosity-noclip-2);}.cls-20{filter:url(#luminosity-noclip);}</style><filter id="luminosity-noclip" x="227.59" y="-8732" width="590.13" height="32766" filterUnits="userSpaceOnUse" color-interpolation-filters="sRGB"><feFlood flood-color="#fff" result="bg"/><feBlend in="SourceGraphic" in2="bg"/></filter><mask id="mask" x="227.59" y="-8732" width="590.13" height="32766" maskUnits="userSpaceOnUse"><g class="cls-20"/></mask><linearGradient id="linear-gradient" x1="522.66" y1="827.28" x2="522.66" y2="1200.34" gradientUnits="userSpaceOnUse"><stop offset="0" stop-color="#fff"/><stop offset="1"/></linearGradient><filter id="luminosity-noclip-2" x="227.59" y="962.3" width="590.13" height="49.42" filterUnits="userSpaceOnUse" color-interpolation-filters="sRGB"><feFlood flood-color="#fff" result="bg"/><feBlend in="SourceGraphic" in2="bg"/></filter><mask id="mask-2" x="0" y="950.33" width="590.13" height="49.42" maskUnits="userSpaceOnUse"><g class="cls-19"><g transform="translate(-227.59 -11.97)"><g class="cls-1"><path class="cls-2" d="M817.72,987c0,13.65-132.1,24.72-295.06,24.72S227.59,1000.66,227.59,987,359.7,962.3,522.66,962.3,817.72,973.37,817.72,987Z"/></g></g></g></mask><linearGradient id="linear-gradient-2" x1="522.66" y1="827.28" x2="522.66" y2="1200.34" gradientUnits="userSpaceOnUse"><stop offset="0" stop-color="#86caf1"/><stop offset="1" stop-color="#fff"/></linearGradient></defs><g id="Layer_2" data-name="Layer 2"><g class="cls-3"><path class="cls-4" d="M817.72,987c0,13.65-132.1,24.72-295.06,24.72S227.59,1000.66,227.59,987,359.7,962.3,522.66,962.3,817.72,973.37,817.72,987Z" transform="translate(-227.59 -11.97)"/></g></g><g id="Layer_1" data-name="Layer 1"><path class="cls-5" d="M714.43,386.21s12.61-.17,17.1-5,12.42-9.21,15-10.45c3.4-1.66,12.81-10.8,14-6.34s-15,15.8-18.06,18.86,13.43,4.39,15.85,7.36-6,34.19-17,31.77-20-13.5-22.08-13.48-8.12-1.39-8.12-1.39Z" transform="translate(-227.59 -11.97)"/><path class="cls-5" d="M755.93,389.33s32.82,10,34.18,12.87.43,4.92-2.7,4.13-32.13-8.59-32.13-8.59,35.87,19.61,37.49,21.57c1,1.15-.63,5.25-2.37,5s-38.66-17.17-38.66-17.17,33.45,18.38,34.28,20.57c.73,1.91-1.51,5.43-4.1,4.28s-34.84-16.06-34.84-16.06S770.39,431.2,770,433.72c-.22,1.53-1.44,5.12-7.31.94s-20.92-12.18-20.92-12.18Z" transform="translate(-227.59 -11.97)"/><path class="cls-6" d="M645.38,939.92s10.53,15.76,25.3,19.16,29.32,8.82,29.43,18.14-42.7,14.88-59.6,5.48c-25.23-14-27.79-9.8-30.59-16.81s3.36-25.75,3.18-28C612.87,935.15,645.38,939.92,645.38,939.92Z" transform="translate(-227.59 -11.97)"/><path class="cls-7" d="M643.75,932.15s1.92,7.61,1.63,7.77-33.28,4.09-32.28-2c.81-4.95,2-10.34,2-10.34Z" transform="translate(-227.59 -11.97)"/><path class="cls-6" d="M438.17,938.88s7.51,15.07,20.35,20.2c13.71,5.49,24.71,11.79,24.46,20.87s-33.53,18.29-57.74.86c-15.3-11-20.15-11.07-22.6-18s4.26-25,4.17-27.13C406.69,933,438.17,938.88,438.17,938.88Z" transform="translate(-227.59 -11.97)"/><path class="cls-7" d="M438.55,931.05s-.09,7.68-.38,7.83-32.18,2.77-31.36-3.2a49.13,49.13,0,0,1,3.09-10.49Z" transform="translate(-227.59 -11.97)"/><path class="cls-8" d="M555.48,470.72s41.89,160.47,57.84,197.57C628.1,702.67,633,750.74,635,774.88c2.56,30.37,17.79,148.63,19.58,157.51s-49.28,4.91-49.28,4.91S570.1,732.83,555.48,703c-9.75-19.91-66.36-162.71-72.83-154.49s-14.51,151.3-19.31,175S443.82,935,443.82,935s-32.93,4.86-41.72-2.58c0,0-4-160.25-1-204.78,1.16-17-19.88-203.47,7.1-278.55C422.52,409.38,555.48,470.72,555.48,470.72Z" transform="translate(-227.59 -11.97)"/><path class="cls-9" d="M322.16,355.64c0,1.83,3.47,9.17,9,19.73,8.09-16.18,14.45-29.47,16.53-34.35,6.81-16.11,41.94-53,41.94-53a.23.23,0,0,0,0,.07.09.09,0,0,0,0,.05v0c0,.05,0,.1,0,.15s.05.2.09.32,0,.13.05.19,0,.1,0,.15c1.91,7.13,13.66,51.67,14.09,73.61.48,23.89,6.71,68.08,6.71,68.08h0l7.34,1L434.28,434l2,.27,4.72.66L484,441l15.27,2.14,2.06.3,8.72,1.22,24.1,3.39,6.14.86h.06l4.6.65,6.36.89h0c.17-.24,6.19-8.47,5.26-26.76-.59-11.81-2-34-1.42-54.57,0-.11,0-.22,0-.32,0-.26,0-.52,0-.78,0-.09,0-.17,0-.26v-.05c.37-11.3,1.37-22,3.48-30.16a125.19,125.19,0,0,0,3-16.09l.09-.74c.11-.95.21-1.89.3-2.81a141.3,141.3,0,0,0,.22-25.78l0,.05c.44.95,3.58,12.46,7.69,26.68,7,24,16.71,55.77,20.86,57.3,6,2.22,103.83,31.18,124.95,34.15,2.44.34,3.85.34,4-.1s.19-.62.29-.95c2.57-8.46,6.09-22.84,6.66-25.16.06-.21.08-.32.08-.32l-3.78-1.13L616.64,350.75,568,210.48c-1-.81-13-6.59-21.69-10.74C537.42,195.5,526.69,189.28,517,184c-5-2.71-9.64-5.19-13.69-7l-.62-.29h0l-11.15-5.09h0l-2.91-.28c-9.34-.89-38.37-3.61-48.1-4.18-.8-.05-1.47-.08-2-.09s-.78,0-1,0c-1.23.08-7.21,2.17-15.08,5.16h0l-.9.34-1.11.42-2.08.8L414,175.4l-1.53.6c-15.74,6.25-33.78,14-38.06,17.05-2.83,2-11.65,18.65-21.87,39.2C339.38,274.43,322.69,339,322.17,354.92,322.17,355.17,322.16,355.41,322.16,355.64Z" transform="translate(-227.59 -11.97)"/><path class="cls-10" d="M551.31,450.44s3.24,3.87,4.17,20.28c0,0-133.15-15.54-147.23-21.66,0,0-.55-18.08,2.44-18.39C414,430.32,551.31,450.44,551.31,450.44Z" transform="translate(-227.59 -11.97)"/><path class="cls-5" d="M437.76,162.47c.41,20.89,40.87,32.32,40.87,32.32s16.93-21.21,12.89-23.25c-1.59-.79-2.24-4-2.43-7.51a72,72,0,0,1,.23-9.48c.12-1.48.23-2.43.23-2.43s-5.78-6.1-13.14-13.36c-12.85-12.71-30.52-29-30.54-22.51a5.37,5.37,0,0,0,.15,1.22C449.12,132.05,437.76,162.47,437.76,162.47Z" transform="translate(-227.59 -11.97)"/><path class="cls-6" d="M441.11,433.87S438.21,452.2,438,457l-6.16-1.23s1.69-19.39,2.69-22.64Z" transform="translate(-227.59 -11.97)"/><path class="cls-6" d="M540.2,448.3s2.33,16.66,2.39,22.95l-6.52-.85s-1.33-20.8-2.08-23Z" transform="translate(-227.59 -11.97)"/><path class="cls-11" d="M453.34,131.85h0c.08.12,1.8,2.69,4.73,6.37,6.21,7.82,17.89,20.65,31,25.81a72,72,0,0,1,.23-9.48,21,21,0,0,0,4-.48,124.71,124.71,0,0,0-8.79-12.88l-8.13-2.43Z" transform="translate(-227.59 -11.97)"/><path class="cls-5" d="M445.57,116.53c3.5,7.61,6.83,13.13,7.77,15.32h0a27.23,27.23,0,0,0,4.73,6.37c6.67,7.19,19.06,16.66,31.25,16.33a21,21,0,0,0,4-.48c4.92-1.08,10.73-3.36,13.93-9.62,25.24-49.43,7-89.84,7-89.84s-69-19.52-79.82,1.26C426.83,70.45,437.35,98.64,445.57,116.53Z" transform="translate(-227.59 -11.97)"/><path class="cls-12" d="M514.23,54.61s6.41-.35,8-12.5-1.6-15.34-1.6-15.34S492.13,14.84,481.9,13.29s-35.4-3-41.3,3.7c0,0-14.33-3.33-18.23,20.46-6.19,37.74,21.1,74.39,21.1,74.39s-.23-24.66,5.21-27.92,10.13,4.5,10.13,4.5l11.12,2S453,53.93,473.3,52.58,502.63,56.73,514.23,54.61Z" transform="translate(-227.59 -11.97)"/><path class="cls-5" d="M458.5,78.59c-1.06-10.86-20.7-15-19.38-3.63s11,22.33,15.46,21.94S459.31,86.87,458.5,78.59Z" transform="translate(-227.59 -11.97)"/><path class="cls-8" d="M331.16,375.37c8.56,16.32,22.06,40.34,35.39,63.63q-2.64,4.92-5.11,9.73a194.15,194.15,0,0,0-10.09,22.52c-3,8.51-7.27,30.31.82,34.36l42.59,23.51.86-2.37c1.41-3.83,4.47-12,8.71-22.61.14-.34.56-1.35,1.19-2.84.85-2,2.07-4.85,3.47-8.11.63-1.46,1.28-3,2-4.58l2.36-5.53c1.16-2.7,2.32-5.38,3.38-7.86l5.18-12,.43-.93c1.39-3,2.81-6,4.26-9,2.23-4.65,4.54-9.27,6.89-13.8l.72-1.37,1.26-2.38c.26-.48.52-1,.79-1.44a3.24,3.24,0,0,1,.17-.32l.32-.57c12.31-22.47,26.18-41.25,30.61-68.79.42-2.66.83-5.31,1.21-7.93.65-4.37,1.24-8.69,1.77-12.92.21-1.6.41-3.18.59-4.75,2.22-18.38,3.55-34.75,4.62-46.16,3.33-35.53-18.44-74-35.15-97.77a261.6,261.6,0,0,0-17.86-22.82l-.09-.09-.9.34-1.11.42-2.08.8L414,175.4l-1.53.6c-16.18,6.35-50.26,15.72-54.54,18.79-2.48,1.78-8,18-14.41,38.47-13.16,42.18-21,105.77-21.36,121.66,0,.25,0,.49,0,.72C322.16,357.47,325.63,364.81,331.16,375.37Zm64.73-7.93c0,7.92-2.58,17-6.54,26.67-.11.24-.2.49-.31.73-2.73-5.83-5.3-11.41-7.6-16.58v0c-6.34-14.19-10.7-25.26-10.94-29.64-1.56-28.13,19.16-60.52,19.16-60.52a.09.09,0,0,0,0,.05v0c0,.05,0,.1,0,.15l.09.32c0,.06,0,.13.05.19s0,.1,0,.15C394.13,305.71,395.89,367.44,395.89,367.44Z" transform="translate(-227.59 -11.97)"/><path class="cls-13" d="M476.79,473.44l-121.41,54a13.6,13.6,0,0,1-18-6.9l-33.24-74.67a13.6,13.6,0,0,1,6.9-18l121.41-54a13.6,13.6,0,0,1,18,6.9l33.24,74.67A13.6,13.6,0,0,1,476.79,473.44Z" transform="translate(-227.59 -11.97)"/><path class="cls-8" d="M503,177.17s5.69,19,13.06,66.27v0c.25,1.59.49,3.2.74,4.86l.09.57c.17,1.1.34,2.2.5,3.33l.06.39c.11.76.23,1.52.34,2.29q.4,2.8.83,5.71c3.28,23,7.89,62.23,12.32,101.8v0c3.5,31.18,11.48,63.19,14,87.07v.05a163.73,163.73,0,0,0,3.32,18c.18.79.37,1.6.55,2.41,7.14,30.15,21,72.82,21,72.82l4-3.72,11.95-11a9.67,9.67,0,0,0,2.68-10c-6.62-21.38-29.15-97-33.27-150.24a.09.09,0,0,1,0-.05c2-18.69,7.2-43.77,6.43-47.38l.14.39c2.37,6.6,5,13.77,7.65,20.75h0c7.11,18.75,14.38,36.12,17.41,37.23,6.74,2.48,127.8,38.19,128.68,33.21.08-.5.19-1,.31-1.6s.23-1.14.35-1.75c1.5-6.82,4.21-16.61,6.11-23.21.28-1,.54-1.89.78-2.7.79-2.74,1.31-4.48,1.31-4.48L622,344.56,570.33,209.48c-1-.81-14.19-7.9-22.92-12-9.09-4.33-20.58-9.67-30.78-14.37-4.88-2.26-9.46-4.36-13.34-6.14Z" transform="translate(-227.59 -11.97)"/><path class="cls-14" d="M433.66,224l19.68,11.1-8.41,8.58,22.39,120.9c4.57-28.34,6.65-55.25,8.19-71.76,5.15-54.93-49.67-116.89-53.08-120.69-2.64,1-5.48,2.11-8.42,3.27Z" transform="translate(-227.59 -11.97)"/><path class="cls-14" d="M502.67,176.63s7.35,24,15.92,84c3.29,23,7.9,62.23,12.33,101.8l4.59-113.23L526.13,239l8.33-10.42-17.83-45.54c-4.88-2.26-9.46-4.36-13.34-6.14Z" transform="translate(-227.59 -11.97)"/><path class="cls-15" d="M421.33,172.55l16.43-10.08s.46,8.95,40.87,32.32l-11.47,32.33Z" transform="translate(-227.59 -11.97)"/><path class="cls-15" d="M489.39,167s-.64,9.65-10.76,27.81L501,224l1.64-47.37Z" transform="translate(-227.59 -11.97)"/><path class="cls-16" d="M478.57,194.79s-4.34,17.37-2.78,22.23c0,0,9.55,3.48,16.41-.87C492.2,216.15,487.34,204,478.57,194.79Z" transform="translate(-227.59 -11.97)"/><path class="cls-17" d="M501,445.24c2.42-12.25.11-49,0-50.52l-2.08.13c0,.38,2.4,38,0,50Z" transform="translate(-227.59 -11.97)"/><path class="cls-18" d="M484,439.59s19.59,2.34,26.07,4l-.85,22-25.66-2.74Z" transform="translate(-227.59 -11.97)"/><path class="cls-16" d="M488.31,214.59s21.85,55.18,18.28,117c-3.69,64-9.75,87.26-9.75,87.26l-13.48,16.9-5.94-20.77s18.08-81.65,6.41-161.09c-2.12-14.4-5.26-41.68-5.26-41.68Z" transform="translate(-227.59 -11.97)"/><path class="cls-5" d="M422.64,475.2s4.69,9.37,9.38,10.94,11.53,9.18,11.53,9.18l-33,17.39s-8.79-17.2-9.18-28.14S422.64,475.2,422.64,475.2Z" transform="translate(-227.59 -11.97)"/><path class="cls-9" d="M425.78,476.08l2.18,4.39s-21,15.34-26.62,16.31l-1.94-5.86Z" transform="translate(-227.59 -11.97)"/><path class="cls-8" d="M428,476.27s-15.71,13-28.95,19l-59.32-104,37.86-20.7S426.92,468.45,428,476.27Z" transform="translate(-227.59 -11.97)"/><path class="cls-8" d="M561,292.33c.73,14.82.62,28,.62,28h0c0,.07,0,.47,0,1.13l.09-.74c2.37,6.6,5,13.77,7.65,20.75a224,224,0,0,0,.59-22.61c-1.06-41.56-14.13-63.35-14.13-63.35C558.87,262.75,560.31,278.28,561,292.33Z" transform="translate(-227.59 -11.97)"/></g></svg>