<svg id="Layer_1" data-name="Layer 1" xmlns="http://www.w3.org/2000/svg" xmlns:xlink="http://www.w3.org/1999/xlink" viewBox="0 0 650 950"><defs><style>.cls-1{fill:#1a3760;}.cls-2{fill:#fddcbb;}.cls-3{fill:#203865;}.cls-4{fill:#f6aa78;}.cls-5{fill:#f2904f;}.cls-6{fill:#facca6;}.cls-7{fill:#e7344a;}.cls-8{fill:#e9415f;}.cls-9{fill:#fff;}.cls-10{fill:#c2daec;}.cls-11{fill:#0d5684;}</style></defs><path class="cls-1" d="M160.43,293.29c-1.65-5.88,55.12-15.2,48.79,38.55,0,0,101.82,16.21,62.4-60-13.65-26.39-9.35-45.26-6.45-63s-1.06-71.79-39.31-73.65c0,0-9.19-6.61-22.48-1.37C173.17,145.67,88.37,299.93,160.43,293.29Z"/><path class="cls-2" d="M243.05,365.81a123.28,123.28,0,0,0,10.22,18.35c8,11.8,49.65-16.22,46-18.35s-24.54-73.74-29.53-82.74-22-13.67-22-13.67Z"/><path class="cls-3" d="M102.34,848.82s-11.51,12.46-9.27,21.32,12.63,14.75,14,25.58,7,16.72,12.07,16.72h24.09s3.72-7.62-5.27-9.91-12.37-15-11.8-26.82-.85-27.54-.85-27.54l-19.08-5.25Z"/><path class="cls-3" d="M199.75,854.11s-4.15,52.79.91,55.74l64.66-.16s0-8.85-10.39-10.82-28.63-9.18-31.72-25.25S199.75,854.11,199.75,854.11Z"/><path class="cls-4" d="M153.67,475.41c13.3-35.4,21.44-45.56,19.89-56.55-1.16-8.18,3.52-152.49,3.52-152.49,1.58-.58,4.75-1.1,6.48-1.55,5.45-1.44,10-6,11.85-12.24,2.27-7.52,4.07-18.63,4-32.56l1.7.4,28.66,6.74s-.65,10.7-.67,20.78v.25c0,8.75,4.8,16.48,11.89,18.91,3.62,1.24,6.77,2.3,6.77,2.3s10.53,35.64,12.54,72.26-19.14,52.53.16,125.71C280.19,542.1,146.32,495,153.67,475.41Z"/><path class="cls-5" d="M229.8,227.16s-.65,10.7-.67,20.78c-16-.54-24.52-17.9-28-27.52Z"/><path class="cls-4" d="M231.53,241.37s-37.57-6.35-33.88-34S199,160.16,223.13,163s27.38,14.32,28,23.92S241.4,242.31,231.53,241.37Z"/><path class="cls-1" d="M240.28,165.59s-14.62,30.55-31,32.37-22.55-4.46-22.55-4.46,13.61-9.1,18.78-28.5C205.5,165,234.62,148.66,240.28,165.59Z"/><path class="cls-1" d="M237.39,167.74s7.15,4.82,9.4,12a53.25,53.25,0,0,1,1.65,26.38s10.7-20.62,3.69-34.75C244.69,156.37,237.39,167.74,237.39,167.74Z"/><path class="cls-2" d="M150,330.21s-1,16.12,0,35.46c.64,12.82,11.58,30,13.13,34.24,3.89,10.65,8.28,12.38,8.28,12.38l34,9.87,11.93,3.47,37.65-13.34s17.14-56.78,10.26-88.74-17.4-54.15-17.4-54.15-30.72,35.68-70.72-3Z"/><path class="cls-6" d="M146.77,366.11c.64,12.82,14.81,29.55,16.36,33.8,3.89,10.65,8.28,12.38,8.28,12.38l34,9.87,9-15.15s-55-18.13-44.55-75.62Z"/><path class="cls-7" d="M252.54,420.91s18.65,68.84,19.84,92.28-35.63,333-37.11,343.77c-1.4,10.18-12.06,16.66-12.06,16.66a13.92,13.92,0,0,1-11.89,1.09c-9.7-3.25-12.77-7.14-12.77-7.14S184,646.82,193,568s9.08-147,9.08-147Z"/><path class="cls-8" d="M173.56,418.86s-28.44,45.26-31.09,75.86-4.16,138.09-9.81,167.92-26.39,87.24-26.39,180.28a16.8,16.8,0,0,0,8.81,8.18,64.94,64.94,0,0,0,7.76,2.54c5.49,1.49,11.12-1.69,13.63-7.68,14-33.51,58.72-141.6,61-164C199.1,666.05,213.21,561,244,499.3c7.39-14.8-4.53-73.67-4.53-73.67Z"/><path class="cls-3" d="M255.52,410.28s-7.48,7-22.35,7.38c-17.76.43-61.76-5.37-61.76-5.37a50.25,50.25,0,0,0-1.88,13.32s53.75,16.09,84.89,2.35C254.42,428,258.43,419,255.52,410.28Z"/><path class="cls-9" d="M229.33,424.94c0-6,3.63-10.88,8.1-10.88s8.11,4.88,8.11,10.88-3.64,10.88-8.11,10.88S229.33,430.94,229.33,424.94Zm2.68,0c0,4.24,2.43,7.69,5.42,7.69s5.42-3.45,5.42-7.69-2.43-7.7-5.42-7.7S232,420.69,232,424.94Z"/><polygon class="cls-10" points="198.6 455.61 279.38 456.51 319.13 345.68 238.35 344.79 198.6 455.61"/><path class="cls-4" d="M209.17,405.53l5.92-8.63s4-4.24,6.91-5,9.05-4.93,9.65-3.74-4.72,9.63-4.72,9.63l-.27,0c6.1,5.44,21.5.64,23.4,2.86,2.3,2.69-3.17,8.51-6.11,11.77s-11.34,8.72-17.89,6.3c-4.78-1.77-12.32-3.57-12.32-3.57Z"/><path class="cls-4" d="M313.05,365.18s-5.07-6.85-8.3-3.56.84,19.44,3.92,17.79S314.82,367.19,313.05,365.18Z"/><path class="cls-2" d="M177.08,266.37s-26.93,2.24-37.26,32-29.47,93.27-29.47,101.68,21.13,39.35,103.85,15.43c0,0,2.81-9.42-2.71-14.18,0,0-57.66-22-57.57-26.33.19-8.27,7.8-15.41,40-53.63C202.68,311,177.08,266.37,177.08,266.37Z"/><path class="cls-11" d="M305.08,129.75h0a19,19,0,0,0,0-19.17H318S318,125.3,305.08,129.75Z"/><path class="cls-11" d="M443.53,113H307.76c-19.11,0-34.59-16.46-34.59-36.77h0c0-20.3,15.48-36.76,34.59-36.76H443.53c19.11,0,34.59,16.46,34.59,36.76h0C478.12,96.52,462.64,113,443.53,113Z"/><image width="300" height="300" transform="translate(274.63 11.79) scale(0.68 0.44)" xlink:href="../../../Untitled-2.png"/></svg>