<?xml version="1.0" encoding="UTF-8"?>
<svg xmlns="http://www.w3.org/2000/svg" xmlns:xlink="http://www.w3.org/1999/xlink" width="240px" height="54px" viewBox="0 0 238 54" version="1.1">
<g id="surface1">
<path style=" stroke:none;fill-rule:nonzero;fill:rgb(99.215686%,99.215686%,99.215686%);fill-opacity:1;" d="M 229.269531 25.78125 C 229.269531 26.503906 229.269531 27.140625 229.269531 27.789062 C 229.34375 29.394531 229.441406 31.011719 229.539062 32.617188 C 229.589844 32.859375 229.613281 33.105469 229.613281 33.351562 C 229.613281 33.632812 229.503906 34.035156 229.28125 34.121094 C 228.921875 34.214844 228.539062 34.171875 228.207031 34 C 226.980469 33.289062 225.917969 32.503906 224.789062 31.757812 C 221.960938 29.882812 219.144531 28 216.292969 26.148438 C 215.917969 25.9375 215.5 25.816406 215.070312 25.792969 C 212.019531 25.792969 208.949219 25.792969 205.925781 25.792969 C 205.527344 25.777344 205.140625 25.648438 204.808594 25.425781 C 203.464844 24.433594 202.152344 23.40625 200.832031 22.375 C 200.25 21.851562 199.40625 21.742188 198.710938 22.105469 C 197.820312 22.472656 196.9375 22.855469 196.042969 23.210938 C 195.148438 23.566406 194.734375 23.40625 194.378906 22.914062 C 194.023438 22.425781 194.257812 21.972656 194.980469 21.691406 C 196.667969 20.929688 198.359375 20.195312 200.035156 19.425781 C 200.601562 19.128906 201.285156 19.171875 201.808594 19.535156 C 202.308594 19.808594 202.773438 20.132812 203.207031 20.503906 C 204.292969 21.449219 205.710938 21.921875 207.148438 21.8125 C 210.0625 21.8125 212.976562 21.886719 215.878906 21.8125 C 217.039062 21.742188 218.191406 22.089844 219.121094 22.792969 C 220.566406 23.847656 222.097656 24.800781 223.601562 25.804688 C 223.699219 25.804688 223.835938 25.902344 224.105469 26.027344 C 224.105469 25.648438 224.105469 25.351562 224.105469 25.070312 C 224.105469 24.324219 223.996094 23.589844 223.980469 22.84375 C 223.96875 22.09375 224.3125 21.835938 225.207031 21.835938 L 230.582031 21.835938 C 232.320312 21.835938 232.96875 21.324219 232.96875 19.953125 C 232.96875 15.347656 232.96875 10.734375 232.96875 6.113281 C 232.96875 4.886719 232.332031 4.359375 230.765625 4.359375 L 181.941406 4.359375 C 180.433594 4.359375 179.785156 4.875 179.785156 6.085938 C 179.785156 7.644531 179.785156 9.1875 179.785156 10.730469 C 179.785156 11.425781 179.46875 11.671875 178.5625 11.683594 L 176.113281 11.683594 C 175.171875 11.683594 174.789062 11.464844 174.789062 10.730469 C 174.789062 8.671875 174.789062 6.601562 174.960938 4.605469 C 175.132812 2.609375 178.046875 0.601562 180.484375 0.492188 C 181.816406 0.492188 183.152344 0.390625 184.472656 0.390625 C 199.980469 0.390625 215.457031 0.390625 230.898438 0.390625 C 234.484375 0.390625 237.019531 2.15625 237.753906 4.300781 C 237.941406 4.859375 238.03125 5.449219 238.023438 6.039062 C 238.023438 10.789062 238.023438 15.539062 238.023438 20.28125 C 238.023438 23.550781 235.011719 25.941406 230.9375 25.941406 Z M 229.269531 25.78125 "/>
<path style=" stroke:none;fill-rule:nonzero;fill:rgb(99.215686%,99.215686%,99.215686%);fill-opacity:1;" d="M 190.949219 25.78125 L 191.671875 27.007812 C 192.359375 27.007812 192.898438 27.214844 192.898438 27.972656 C 192.898438 28.046875 193.082031 28.183594 193.179688 28.183594 C 194.121094 28.183594 194.402344 28.636719 194.304688 29.257812 C 195.628906 29.601562 195.910156 29.847656 195.726562 30.484375 C 195.367188 31.0625 194.714844 31.386719 194.035156 31.328125 C 193.425781 31.257812 193.289062 30.949219 193.449219 30.03125 C 191.929688 29.945312 191.929688 29.945312 191.90625 28.929688 C 191.488281 28.929688 190.925781 28.929688 190.679688 28.734375 C 190.4375 28.535156 190.523438 28.097656 190.449219 27.691406 C 190.058594 27.617188 189.226562 28.011719 189.078125 27.324219 C 188.929688 26.640625 189.347656 26.210938 190.179688 25.78125 C 189.761719 25.78125 189.519531 25.78125 189.273438 25.78125 L 182.296875 25.78125 C 181.882812 25.785156 181.476562 25.828125 181.070312 25.902344 C 180.359375 26.015625 179.863281 26.671875 179.945312 27.386719 C 179.945312 29.074219 179.945312 30.777344 179.945312 32.480469 L 179.945312 40.476562 C 179.945312 41.703125 180.53125 42.207031 182.085938 42.207031 L 187.167969 42.207031 C 188.539062 42.207031 188.832031 42.425781 188.808594 43.550781 C 188.808594 44.386719 188.710938 45.21875 188.660156 46.222656 L 191.269531 44.605469 C 192.371094 43.917969 193.460938 43.199219 194.585938 42.535156 C 194.964844 42.332031 195.382812 42.226562 195.8125 42.230469 C 209.050781 42.230469 222.285156 42.230469 235.515625 42.230469 C 235.882812 42.207031 236.246094 42.328125 236.53125 42.558594 C 236.679688 42.769531 236.53125 43.183594 236.324219 43.429688 C 234.851562 45.164062 232.65625 46.117188 230.386719 46.015625 L 197.757812 46.015625 C 197.179688 45.992188 196.609375 46.140625 196.117188 46.441406 C 193.667969 48.046875 191.121094 49.628906 188.613281 51.207031 C 187.289062 52.050781 185.980469 52.898438 184.621094 53.65625 C 184.3125 53.847656 183.941406 53.921875 183.582031 53.863281 C 183.316406 53.675781 183.171875 53.367188 183.1875 53.042969 C 183.273438 51.183594 183.433594 49.371094 183.554688 47.460938 C 183.554688 46.992188 183.554688 46.515625 183.554688 45.976562 L 181.511719 45.976562 C 178.660156 45.976562 175.867188 44.335938 175.085938 42.132812 C 174.925781 41.582031 174.859375 41.011719 174.886719 40.441406 C 174.886719 36.09375 174.886719 31.746094 174.886719 27.398438 C 174.886719 24.628906 177.066406 22.78125 179.859375 22.09375 C 180.605469 21.960938 181.367188 21.90625 182.125 21.9375 C 183.765625 21.9375 185.417969 21.9375 187.019531 21.9375 C 188.339844 21.914062 189.632812 21.539062 190.753906 20.84375 C 191.992188 20.210938 193.277344 19.679688 194.597656 19.253906 C 195.335938 19.046875 196.128906 19.195312 196.742188 19.65625 C 195.859375 20.085938 194.980469 20.492188 194.144531 20.882812 C 193.449219 21.121094 193 21.800781 193.054688 22.539062 C 193.113281 23.277344 193.664062 23.878906 194.390625 24.003906 C 194.953125 24.148438 195.542969 24.148438 196.105469 24.003906 C 196.84375 23.8125 197.5625 23.558594 198.261719 23.246094 C 198.839844 22.96875 199.523438 23.050781 200.023438 23.453125 C 201.320312 24.472656 202.605469 25.488281 203.878906 26.515625 C 204.269531 26.835938 204.429688 27.214844 203.953125 27.570312 C 203.574219 27.832031 203.0625 27.792969 202.726562 27.472656 C 202.386719 27.203125 202.054688 26.921875 201.699219 26.664062 C 201.53125 26.546875 201.355469 26.441406 201.171875 26.34375 L 200.976562 26.46875 C 201.085938 26.648438 201.207031 26.820312 201.34375 26.980469 C 201.710938 27.3125 202.117188 27.605469 202.472656 27.9375 C 202.828125 28.269531 202.800781 28.648438 202.375 28.832031 C 202.007812 28.964844 201.601562 28.964844 201.234375 28.832031 C 200.765625 28.523438 200.316406 28.179688 199.902344 27.800781 C 199.6875 27.679688 199.46875 27.574219 199.238281 27.484375 L 199.082031 27.644531 L 199.886719 28.390625 C 200.097656 28.574219 200.339844 28.734375 200.535156 28.929688 C 200.734375 29.125 200.976562 29.578125 200.535156 29.882812 C 200.179688 30.171875 199.671875 30.171875 199.3125 29.882812 C 198.921875 29.601562 198.566406 29.285156 198.1875 29.003906 C 197.992188 28.84375 197.769531 28.707031 197.5625 28.5625 L 197.390625 28.648438 C 197.433594 28.789062 197.5 28.921875 197.585938 29.039062 C 197.910156 29.277344 198.214844 29.546875 198.492188 29.835938 C 198.675781 30.085938 198.753906 30.398438 198.699219 30.703125 C 198.492188 30.917969 198.199219 31.027344 197.90625 31 C 197.5625 30.875 197.085938 30.582031 197.058594 30.351562 C 196.960938 29.519531 196.414062 28.8125 195.640625 28.5 C 194.988281 28.011719 194.378906 27.46875 193.816406 26.882812 C 193.359375 26.429688 192.839844 26.042969 192.273438 25.730469 C 191.929688 25.585938 191.355469 25.78125 190.949219 25.78125 Z M 190.949219 25.78125 "/>
<path style=" stroke:none;fill-rule:nonzero;fill:rgb(99.215686%,99.215686%,99.215686%);fill-opacity:1;" d="M 49.828125 19.914062 L 49.828125 21.863281 C 49.828125 23.699219 48.507812 24.824219 46.15625 24.9375 L 45.945312 24.9375 C 44.390625 24.9375 44.320312 24.9375 44.320312 23.710938 C 44.320312 22.488281 44.320312 21.582031 44.320312 20.515625 C 44.320312 20.0625 44.148438 19.925781 43.585938 19.925781 C 40.988281 19.925781 38.382812 19.925781 35.785156 19.925781 C 34.195312 19.925781 32.589844 18.703125 32.578125 17.417969 C 32.578125 14.476562 32.578125 11.550781 32.578125 8.609375 C 32.808594 7.175781 34.0625 6.128906 35.515625 6.160156 C 39.34375 6.175781 43.132812 6.183594 46.878906 6.183594 C 48.304688 6.234375 49.515625 7.242188 49.828125 8.636719 C 49.828125 10.742188 49.828125 12.835938 49.828125 14.929688 C 49.828125 15.394531 49.976562 15.554688 50.585938 15.554688 C 55.800781 15.554688 61.023438 15.554688 66.246094 15.554688 C 66.785156 15.554688 67.003906 15.457031 66.992188 14.980469 C 66.992188 13.535156 66.992188 12.089844 66.992188 10.582031 L 66.269531 10.582031 C 64.691406 10.582031 63.125 10.582031 61.542969 10.582031 C 60.859375 10.582031 60.699219 10.753906 60.722656 11.257812 C 60.722656 12.039062 60.722656 12.824219 60.722656 13.605469 C 60.722656 14.058594 60.480469 14.269531 59.902344 14.257812 L 56.121094 14.257812 C 55.519531 14.257812 55.238281 14.074219 55.25 13.582031 C 55.25 11.917969 55.25 10.265625 55.25 8.609375 C 55.585938 7.246094 56.773438 6.257812 58.179688 6.183594 C 61.960938 6.183594 65.742188 6.183594 69.539062 6.183594 C 70.980469 6.175781 72.210938 7.214844 72.453125 8.636719 C 72.453125 11.585938 72.453125 14.550781 72.453125 17.503906 C 72.453125 18.566406 70.652344 19.953125 69.257812 19.953125 C 63.136719 19.953125 57.015625 19.953125 50.894531 19.953125 Z M 38.097656 10.535156 C 38.097656 12.148438 38.097656 13.667969 38.097656 15.1875 C 38.097656 15.308594 38.40625 15.519531 38.578125 15.519531 C 40.316406 15.519531 42.054688 15.519531 43.804688 15.519531 C 44.136719 15.519531 44.332031 15.445312 44.332031 15.136719 C 44.332031 13.730469 44.332031 12.320312 44.332031 10.914062 C 44.332031 10.777344 44.0625 10.535156 43.902344 10.535156 C 42.015625 10.519531 40.121094 10.535156 38.113281 10.535156 Z M 38.097656 10.535156 "/>
<path style=" stroke:none;fill-rule:nonzero;fill:rgb(99.215686%,99.215686%,99.215686%);fill-opacity:1;" d="M 95.984375 19.914062 C 92.3125 19.914062 88.734375 19.914062 85.125 19.914062 C 83.667969 19.914062 81.78125 18.457031 81.820312 17.320312 C 81.917969 14.429688 81.820312 11.523438 81.820312 8.621094 C 82.078125 7.117188 83.445312 6.0625 84.964844 6.183594 C 88.621094 6.183594 92.292969 6.183594 95.984375 6.183594 C 97.488281 6.171875 98.789062 7.238281 99.070312 8.71875 C 99.070312 10.789062 99.070312 12.871094 99.070312 14.953125 C 99.070312 15.421875 99.226562 15.578125 99.828125 15.566406 C 101.210938 15.566406 102.59375 15.566406 103.964844 15.566406 C 104.613281 15.566406 104.773438 15.40625 104.773438 14.917969 C 104.773438 10.300781 104.773438 5.695312 104.773438 1.078125 C 104.773438 0.257812 104.933594 0.160156 106 0.121094 C 107.882812 0.0625 109.363281 0.527344 110.085938 2.035156 C 110.195312 2.253906 110.253906 2.496094 110.257812 2.742188 C 110.257812 7.644531 110.257812 12.503906 110.257812 17.332031 C 110.257812 18.554688 108.445312 19.9375 106.964844 19.9375 C 103.28125 19.902344 99.632812 19.914062 95.984375 19.914062 Z M 87.328125 10.535156 C 87.328125 12.136719 87.328125 13.65625 87.328125 15.175781 C 87.328125 15.296875 87.632812 15.519531 87.804688 15.519531 C 89.566406 15.519531 91.332031 15.519531 93.09375 15.519531 C 93.253906 15.519531 93.535156 15.285156 93.535156 15.164062 C 93.535156 13.730469 93.535156 12.308594 93.535156 10.875 C 93.535156 10.753906 93.277344 10.546875 93.132812 10.546875 C 91.257812 10.519531 89.347656 10.535156 87.328125 10.535156 Z M 87.328125 10.535156 "/>
<path style=" stroke:none;fill-rule:nonzero;fill:rgb(99.215686%,99.215686%,99.215686%);fill-opacity:1;" d="M 14.445312 19.914062 L 4.078125 19.914062 C 1.738281 19.914062 0.246094 18.910156 0.207031 17.0625 C 0.148438 14.160156 0.207031 11.230469 0.304688 8.328125 C 0.625 7.054688 1.773438 6.167969 3.085938 6.183594 C 6.867188 6.183594 10.652344 6.183594 14.457031 6.183594 C 15.746094 6.183594 17.445312 7.59375 17.398438 8.636719 C 17.300781 10.703125 17.398438 12.785156 17.398438 14.867188 C 17.398438 15.433594 17.605469 15.578125 18.277344 15.554688 C 19.691406 15.554688 21.097656 15.554688 22.503906 15.554688 C 23.210938 15.554688 23.371094 15.371094 23.371094 14.84375 C 23.371094 10.289062 23.371094 5.71875 23.371094 1.164062 C 23.371094 0.195312 23.46875 0.136719 24.730469 0.109375 C 26.140625 -0.0820312 27.542969 0.496094 28.402344 1.628906 C 28.574219 1.886719 28.675781 2.179688 28.695312 2.488281 C 28.695312 7.472656 28.695312 12.445312 28.695312 17.417969 C 28.695312 18.492188 26.871094 19.953125 25.464844 19.9375 C 21.792969 19.890625 18.121094 19.914062 14.445312 19.914062 Z M 11.875 10.535156 C 9.867188 10.535156 7.96875 10.535156 6.074219 10.535156 C 5.914062 10.535156 5.644531 10.777344 5.644531 10.914062 C 5.644531 12.316406 5.644531 13.726562 5.644531 15.136719 C 5.644531 15.273438 5.925781 15.492188 6.085938 15.503906 C 7.871094 15.503906 9.660156 15.503906 11.445312 15.503906 C 11.59375 15.503906 11.863281 15.296875 11.863281 15.175781 C 11.875 13.667969 11.875 12.148438 11.875 10.535156 Z M 11.875 10.535156 "/>
<path style=" stroke:none;fill-rule:nonzero;fill:rgb(99.215686%,99.215686%,99.215686%);fill-opacity:1;" d="M 130.25 10.535156 C 130.25 11.539062 130.25 12.46875 130.25 13.398438 C 130.25 14.085938 130.117188 14.195312 129.246094 14.195312 L 125.574219 14.195312 C 125.011719 14.195312 124.753906 14 124.753906 13.546875 C 124.753906 11.832031 124.753906 10.117188 124.753906 8.402344 C 124.753906 7.375 126.296875 6.171875 127.65625 6.160156 C 131.449219 6.160156 135.234375 6.160156 139.027344 6.160156 C 140.363281 6.160156 141.796875 7.25 141.808594 8.316406 C 141.808594 11.539062 141.808594 14.757812 141.808594 17.96875 C 141.808594 18.703125 140.953125 19.191406 140.179688 19.523438 C 139.628906 19.757812 139.039062 19.882812 138.441406 19.890625 C 131.351562 19.890625 124.277344 19.890625 117.1875 19.890625 C 115.683594 19.890625 113.734375 18.46875 113.746094 17.132812 C 113.746094 12.480469 113.746094 7.828125 113.746094 3.171875 C 113.746094 1.261719 114.972656 0.171875 117.421875 0.0742188 L 118.070312 0.0742188 C 119.0625 0.0742188 119.292969 0.222656 119.292969 1.003906 C 119.292969 5.597656 119.292969 10.191406 119.292969 14.796875 C 119.292969 15.371094 119.488281 15.53125 120.210938 15.519531 C 125.390625 15.519531 130.558594 15.519531 135.734375 15.519531 C 136.371094 15.519531 136.617188 15.40625 136.59375 14.855469 C 136.59375 13.558594 136.59375 12.261719 136.59375 10.972656 C 136.542969 10.765625 136.390625 10.59375 136.1875 10.519531 C 134.191406 10.519531 132.285156 10.535156 130.25 10.535156 Z M 130.25 10.535156 "/>
<path style=" stroke:none;fill-rule:nonzero;fill:rgb(99.215686%,99.215686%,99.215686%);fill-opacity:1;" d="M 70.285156 50.042969 C 69.09375 50.910156 67.546875 51.125 66.160156 50.621094 C 65.257812 50.429688 64.632812 49.601562 64.703125 48.683594 C 64.703125 46.492188 64.703125 44.300781 64.703125 42.121094 C 64.703125 41.738281 64.863281 41.605469 65.328125 41.605469 C 67.042969 41.605469 66.773438 41.484375 66.785156 42.695312 C 66.785156 44.335938 66.785156 45.976562 66.785156 47.59375 C 66.785156 49.210938 67.789062 49.136719 69.234375 48.820312 C 69.84375 48.695312 69.90625 48.230469 69.929688 47.800781 C 69.929688 47.152344 69.929688 47.175781 71.15625 47.152344 C 71.792969 47.152344 71.988281 47.324219 71.976562 47.816406 C 71.976562 48.648438 72.234375 48.964844 72.832031 49.039062 C 73.433594 49.113281 73.761719 48.671875 73.789062 47.816406 C 73.789062 47.484375 73.789062 47.175781 74.386719 47.175781 C 75.695312 47.175781 75.710938 47.175781 75.796875 47.753906 C 75.796875 47.960938 75.796875 48.21875 75.882812 48.378906 C 75.964844 48.539062 76.394531 48.953125 76.664062 48.964844 C 77.003906 48.90625 77.296875 48.695312 77.460938 48.390625 C 77.566406 48.0625 77.589844 47.714844 77.535156 47.375 C 77.535156 46.945312 77.730469 46.773438 78.242188 46.824219 L 78.316406 46.824219 C 79.796875 46.824219 79.542969 46.824219 79.542969 47.777344 C 79.542969 48.253906 79.613281 48.707031 80.300781 48.878906 C 81.054688 49.152344 81.894531 48.976562 82.480469 48.425781 C 82.859375 47.949219 83.128906 47.421875 83.484375 46.921875 C 84.070312 45.972656 85.121094 45.40625 86.238281 45.4375 C 87.808594 45.292969 89.210938 46.421875 89.410156 47.984375 C 89.585938 49.003906 89.050781 50.011719 88.113281 50.433594 C 86.800781 51 85.320312 51 84.011719 50.433594 C 83.761719 50.335938 83.519531 50.222656 83.289062 50.09375 C 81.675781 51.019531 79.679688 50.953125 78.132812 49.921875 C 77.730469 50.515625 77.039062 50.851562 76.320312 50.804688 C 75.578125 50.679688 74.847656 50.503906 74.128906 50.277344 C 73 51.257812 71.292969 51.152344 70.285156 50.042969 Z M 86.203125 49.101562 L 86.554688 49.101562 C 87.082031 49.101562 87.523438 48.976562 87.644531 48.539062 C 87.769531 48.097656 87.535156 47.703125 87.035156 47.472656 C 86.269531 47.15625 85.394531 47.285156 84.757812 47.816406 C 84.023438 48.488281 84.097656 48.746094 85.148438 49.039062 C 85.492188 49.050781 85.820312 49.050781 86.152344 49.050781 Z M 86.203125 49.101562 "/>
<path style=" stroke:none;fill-rule:nonzero;fill:rgb(99.215686%,99.215686%,99.215686%);fill-opacity:1;" d="M 23.285156 48.695312 C 24.511719 48.476562 24.730469 48.242188 24.742188 47.335938 C 24.742188 45.648438 24.742188 43.945312 24.742188 42.253906 C 24.742188 41.738281 24.925781 41.542969 25.5625 41.617188 L 26.050781 41.617188 C 26.640625 41.617188 26.847656 41.738281 26.847656 42.21875 C 26.847656 44.03125 26.847656 45.890625 26.847656 47.65625 C 26.847656 48.878906 27.179688 48.992188 28.710938 49.015625 L 31.953125 49.015625 C 33.546875 49.015625 33.960938 48.804688 33.914062 47.519531 C 33.914062 46.921875 33.789062 46.296875 33.703125 45.621094 C 34.304688 45.621094 34.820312 45.621094 35.332031 45.621094 C 35.46875 45.621094 35.699219 45.816406 35.710938 45.941406 C 36.011719 47.03125 36.011719 48.183594 35.710938 49.273438 C 35.253906 50.269531 34.222656 50.875 33.128906 50.789062 L 27.191406 50.789062 C 26.328125 50.8125 25.515625 50.390625 25.035156 49.675781 C 23.433594 50.902344 21.289062 50.667969 19.332031 50.972656 C 19.222656 50.972656 19.011719 50.828125 18.914062 50.71875 C 18.816406 50.605469 18.914062 50.496094 18.914062 50.375 C 18.914062 49.148438 18.914062 49.148438 20.382812 49.0625 C 21.046875 49.0625 21.144531 48.820312 21.046875 48.390625 C 20.738281 46.882812 20.445312 45.390625 20.113281 43.894531 C 20.015625 43.453125 20.113281 43.308594 20.703125 43.308594 C 22.195312 43.308594 22.21875 43.308594 22.464844 44.445312 C 22.710938 45.585938 22.894531 46.773438 23.113281 47.9375 C 23.15625 48.191406 23.214844 48.445312 23.285156 48.695312 Z M 23.285156 48.695312 "/>
<path style=" stroke:none;fill-rule:nonzero;fill:rgb(99.215686%,99.215686%,99.215686%);fill-opacity:1;" d="M 117.324219 50.152344 C 116.097656 51.097656 114.566406 50.742188 113.148438 50.804688 C 112.304688 50.804688 111.445312 50.804688 110.601562 50.804688 C 108.828125 50.890625 107.675781 50.167969 107.640625 48.746094 C 107.566406 46.515625 107.640625 44.289062 107.640625 42.058594 C 107.640625 41.738281 107.808594 41.605469 108.203125 41.617188 C 110.050781 41.617188 109.695312 41.484375 109.71875 42.757812 C 109.71875 44.371094 109.71875 45.988281 109.71875 47.65625 C 109.71875 48.878906 109.929688 49.027344 111.605469 49.039062 C 112.671875 49.039062 113.734375 49.039062 114.8125 49.039062 C 115.664062 49.195312 116.527344 48.804688 116.96875 48.058594 C 117.183594 47.632812 117.433594 47.222656 117.714844 46.835938 C 118.503906 45.710938 119.90625 45.1875 121.242188 45.523438 C 122.460938 45.753906 123.394531 46.742188 123.554688 47.972656 C 123.738281 48.996094 123.195312 50.007812 122.246094 50.421875 C 120.933594 50.988281 119.453125 50.988281 118.144531 50.421875 C 117.863281 50.433594 117.628906 50.277344 117.324219 50.152344 Z M 120.371094 49.148438 C 121.460938 49.074219 121.914062 48.84375 121.902344 48.292969 C 121.890625 47.742188 121.191406 47.226562 120.320312 47.277344 C 119.597656 47.257812 118.921875 47.652344 118.582031 48.292969 C 118.582031 48.414062 118.683594 48.722656 118.816406 48.769531 C 119.316406 48.941406 119.84375 49.050781 120.371094 49.148438 Z M 120.371094 49.148438 "/>
<path style=" stroke:none;fill-rule:nonzero;fill:rgb(99.215686%,99.215686%,99.215686%);fill-opacity:1;" d="M 136.199219 49.996094 C 135.675781 50.585938 134.921875 50.925781 134.132812 50.925781 C 133.339844 50.925781 132.589844 50.585938 132.0625 49.996094 C 131.316406 50.914062 130.152344 50.765625 129.039062 50.789062 L 127.128906 50.789062 C 125.597656 50.789062 124.546875 50.042969 124.523438 48.707031 C 124.460938 46.480469 124.523438 44.25 124.523438 42.023438 C 124.523438 41.703125 124.691406 41.582031 125.085938 41.59375 C 126.921875 41.59375 126.589844 41.457031 126.601562 42.730469 C 126.601562 44.359375 126.601562 45.976562 126.601562 47.632812 C 126.601562 48.855469 126.796875 49.003906 128.488281 49.015625 C 129.148438 49.058594 129.8125 49.058594 130.472656 49.015625 C 131.425781 48.917969 131.621094 48.695312 131.695312 47.9375 C 131.769531 47.175781 131.695312 47.3125 132.921875 47.277344 C 133.617188 47.277344 133.8125 47.484375 133.753906 47.984375 C 133.753906 48.15625 133.679688 48.367188 133.753906 48.488281 C 133.960938 48.757812 134.242188 48.96875 134.5625 49.089844 C 134.742188 49.144531 134.9375 49.121094 135.097656 49.019531 C 135.261719 48.921875 135.371094 48.761719 135.40625 48.574219 C 135.40625 48.402344 135.480469 48.230469 135.527344 48.070312 C 135.578125 47.914062 135.625 47.386719 135.75 47.363281 C 136.265625 47.304688 136.785156 47.304688 137.304688 47.363281 C 137.375 47.363281 137.472656 47.570312 137.5 47.691406 C 137.523438 47.816406 137.5 48.230469 137.609375 48.488281 C 137.675781 48.890625 138.046875 49.175781 138.453125 49.136719 C 138.640625 49.164062 138.828125 49.113281 138.972656 48.988281 C 139.117188 48.867188 139.199219 48.6875 139.199219 48.5 C 139.21875 47.992188 139.171875 47.480469 139.066406 46.980469 C 138.96875 46.578125 139.140625 46.515625 139.554688 46.503906 C 141.074219 46.441406 141.085938 46.441406 141.183594 47.644531 C 141.246094 48.113281 141.246094 48.59375 141.183594 49.0625 C 141.046875 49.964844 140.363281 50.6875 139.46875 50.875 C 138.457031 51.21875 137.34375 51.035156 136.496094 50.386719 C 136.371094 50.277344 136.269531 50.144531 136.199219 49.996094 Z M 136.199219 49.996094 "/>
<path style=" stroke:none;fill-rule:nonzero;fill:rgb(99.215686%,99.215686%,99.215686%);fill-opacity:1;" d="M 8.949219 50.644531 C 8.488281 51.304688 7.957031 51.914062 7.359375 52.457031 C 6.203125 53.109375 4.847656 53.316406 3.550781 53.042969 C 0.429688 52.6875 -0.195312 50.839844 0.0507812 48.671875 C 0.257812 47.730469 0.585938 47.53125 1.789062 47.753906 C 1.960938 47.828125 2.082031 47.992188 2.105469 48.183594 C 2.105469 48.574219 2.03125 48.976562 2.03125 49.40625 C 2.03125 50.558594 2.667969 51.144531 4.078125 51.292969 C 4.554688 51.34375 5.03125 51.34375 5.507812 51.292969 C 6.867188 51.132812 7.46875 50.570312 7.417969 49.46875 C 7.367188 48.972656 7.285156 48.484375 7.175781 48 C 7.050781 47.421875 7.175781 47.324219 7.871094 47.3125 C 9 47.3125 9.011719 47.3125 9.242188 48.15625 C 9.347656 48.734375 9.886719 49.125 10.46875 49.050781 C 12.011719 49.050781 13.554688 49.050781 15.082031 49.050781 C 16.039062 49.050781 16.308594 48.722656 16.308594 47.9375 C 16.308594 47.152344 16.195312 46.539062 16.125 45.734375 C 16.710938 45.734375 17.238281 45.734375 17.777344 45.734375 C 17.910156 45.734375 18.132812 45.953125 18.132812 46.074219 C 18.21875 47.148438 18.191406 48.226562 18.058594 49.296875 C 17.851562 50.324219 16.761719 50.890625 15.449219 50.902344 C 13.589844 50.902344 11.777344 50.902344 9.890625 50.902344 C 9.570312 50.839844 9.257812 50.753906 8.949219 50.644531 Z M 8.949219 50.644531 "/>
<path style=" stroke:none;fill-rule:nonzero;fill:rgb(99.215686%,99.215686%,99.215686%);fill-opacity:1;" d="M 104.273438 45.621094 C 104.847656 45.621094 105.347656 45.621094 105.828125 45.621094 C 106 45.621094 106.253906 45.84375 106.253906 45.964844 C 106.371094 47.035156 106.371094 48.117188 106.253906 49.1875 C 106.058594 50.214844 104.96875 50.765625 103.660156 50.789062 C 103.339844 50.789062 103.035156 50.789062 102.730469 50.789062 C 101.578125 50.789062 100.585938 50.65625 100.121094 49.871094 C 99.410156 50.144531 98.671875 50.34375 97.917969 50.472656 C 95.898438 50.605469 94.636719 49.246094 95.164062 47.703125 C 95.5 46.863281 96.195312 46.214844 97.0625 45.941406 C 97.710938 45.671875 98.394531 45.449219 99.082031 45.230469 C 99.546875 45.082031 99.851562 44.875 99.777344 44.433594 C 99.707031 43.992188 99.949219 43.871094 100.476562 43.871094 C 102.066406 43.871094 101.835938 43.761719 101.847656 44.972656 C 101.847656 45.964844 101.847656 46.957031 101.847656 47.949219 C 101.847656 48.671875 102.152344 48.929688 102.9375 48.964844 C 103.953125 48.964844 104.46875 48.722656 104.480469 47.984375 C 104.492188 47.25 104.332031 46.492188 104.273438 45.621094 Z M 99.523438 46.503906 C 98.753906 46.765625 98 47.070312 97.269531 47.421875 C 96.988281 47.585938 96.820312 47.894531 96.839844 48.21875 C 96.839844 48.414062 97.355469 48.636719 97.671875 48.683594 C 99.277344 48.890625 100.109375 47.960938 99.523438 46.503906 Z M 99.523438 46.503906 "/>
<path style=" stroke:none;fill-rule:nonzero;fill:rgb(99.215686%,99.215686%,99.215686%);fill-opacity:1;" d="M 62.070312 50.925781 L 60.554688 50.925781 C 58.335938 50.925781 57.148438 49.933594 57.246094 48.167969 C 57.53125 46.453125 59.125 45.273438 60.847656 45.5 C 61.714844 45.492188 62.53125 45.914062 63.027344 46.625 C 64.269531 48.332031 64.316406 50.632812 63.136719 52.382812 C 62.464844 53.222656 61.429688 53.679688 60.355469 53.609375 C 59.621094 53.609375 58.886719 53.535156 58.152344 53.507812 C 57.699219 53.507812 57.503906 53.3125 57.527344 52.972656 C 57.535156 52.894531 57.535156 52.816406 57.527344 52.738281 C 57.527344 51.746094 57.527344 51.78125 58.753906 51.84375 C 59.570312 51.875 60.390625 51.839844 61.203125 51.734375 C 61.625 51.65625 61.964844 51.339844 62.070312 50.925781 Z M 60.761719 49.050781 C 61.089844 49.074219 61.421875 49.074219 61.753906 49.050781 C 61.898438 49.050781 62.109375 48.855469 62.121094 48.746094 C 62.179688 47.800781 60.722656 47.019531 59.671875 47.410156 C 59.144531 47.59375 58.851562 47.9375 58.925781 48.402344 C 58.996094 48.867188 59.464844 49.039062 60.003906 49.074219 C 60.234375 49.050781 60.492188 49.050781 60.761719 49.050781 Z M 60.761719 49.050781 "/>
<path style=" stroke:none;fill-rule:nonzero;fill:rgb(99.215686%,99.215686%,99.215686%);fill-opacity:1;" d="M 52.15625 48.304688 C 52.15625 49.957031 50.929688 50.925781 48.875 50.925781 C 46.816406 50.925781 45.519531 49.96875 45.519531 48.351562 C 45.550781 47.523438 45.917969 46.742188 46.539062 46.191406 C 47.164062 45.640625 47.984375 45.367188 48.8125 45.4375 C 49.640625 45.351562 50.46875 45.605469 51.101562 46.148438 C 51.734375 46.691406 52.113281 47.472656 52.15625 48.304688 Z M 48.824219 49.050781 C 49.851562 49.050781 50.355469 48.792969 50.367188 48.28125 C 50.378906 47.765625 49.71875 47.25 48.859375 47.238281 C 48.003906 47.226562 47.355469 47.667969 47.332031 48.242188 C 47.304688 48.820312 47.808594 49.050781 48.824219 49.050781 Z M 48.824219 49.050781 "/>
<path style=" stroke:none;fill-rule:nonzero;fill:rgb(99.215686%,99.215686%,99.215686%);fill-opacity:1;" d="M 54.015625 45.964844 C 54.664062 45.964844 55.238281 45.964844 55.742188 45.964844 C 55.902344 45.976562 56.042969 46.070312 56.121094 46.210938 C 56.707031 47.980469 56.746094 49.886719 56.242188 51.683594 C 55.386719 53.339844 53.476562 54.15625 51.6875 53.632812 C 51.554688 53.632812 51.371094 53.472656 51.359375 53.375 C 51.316406 52.921875 51.316406 52.46875 51.359375 52.015625 C 51.359375 51.929688 51.773438 51.808594 51.984375 51.820312 C 53.78125 51.953125 54.542969 51.464844 54.503906 50.007812 C 54.503906 48.917969 54.273438 47.828125 54.136719 46.722656 C 54.125 46.515625 54.0625 46.296875 54.015625 45.964844 Z M 54.015625 45.964844 "/>
<path style=" stroke:none;fill-rule:nonzero;fill:rgb(99.215686%,99.215686%,99.215686%);fill-opacity:1;" d="M 208.703125 35.371094 C 208.703125 36.511719 207.550781 37.390625 206.035156 37.417969 C 204.515625 37.441406 203.207031 36.535156 203.195312 35.421875 C 203.179688 34.304688 204.417969 33.398438 205.886719 33.386719 C 207.355469 33.375 208.691406 34.21875 208.703125 35.371094 Z M 208.703125 35.371094 "/>
<path style=" stroke:none;fill-rule:nonzero;fill:rgb(99.215686%,99.215686%,99.215686%);fill-opacity:1;" d="M 197.746094 33.386719 C 199.265625 33.386719 200.5 34.28125 200.511719 35.394531 C 200.523438 36.511719 199.289062 37.417969 197.757812 37.417969 C 196.226562 37.417969 194.980469 36.523438 194.992188 35.371094 C 195.003906 34.21875 196.191406 33.375 197.746094 33.386719 Z M 197.746094 33.386719 "/>
<path style=" stroke:none;fill-rule:nonzero;fill:rgb(99.215686%,99.215686%,99.215686%);fill-opacity:1;" d="M 214.113281 33.386719 C 215.644531 33.386719 216.832031 34.28125 216.820312 35.40625 C 216.808594 36.535156 215.59375 37.417969 214.066406 37.417969 C 212.535156 37.417969 211.3125 36.511719 211.335938 35.347656 C 211.359375 34.183594 212.546875 33.375 214.113281 33.386719 Z M 214.113281 33.386719 "/>
<path style=" stroke:none;fill-rule:nonzero;fill:rgb(99.215686%,99.215686%,99.215686%);fill-opacity:1;" d="M 39.140625 47.128906 C 39.140625 48.15625 39.140625 49.1875 39.140625 50.214844 C 39.140625 50.644531 39.019531 50.839844 38.417969 50.816406 C 36.863281 50.816406 37.058594 50.925781 37.058594 49.761719 C 37.058594 47.875 37.058594 45.988281 37.058594 44.105469 C 37.058594 43.613281 37.21875 43.417969 37.855469 43.441406 C 39.261719 43.441406 39.140625 43.320312 39.140625 44.445312 C 39.152344 45.378906 39.140625 46.234375 39.140625 47.128906 Z M 39.140625 47.128906 "/>
<path style=" stroke:none;fill-rule:nonzero;fill:rgb(99.215686%,99.215686%,99.215686%);fill-opacity:1;" d="M 57.175781 24.484375 C 56.464844 24.484375 55.691406 24.484375 55.410156 23.882812 C 55.019531 23.191406 55.066406 22.335938 55.535156 21.691406 C 55.714844 21.492188 55.964844 21.371094 56.230469 21.347656 C 56.886719 21.269531 57.546875 21.269531 58.203125 21.347656 C 58.601562 21.445312 58.9375 21.714844 59.121094 22.082031 C 59.253906 22.597656 59.253906 23.136719 59.121094 23.648438 C 59.046875 24.324219 58.558594 24.484375 57.175781 24.484375 Z M 57.175781 24.484375 "/>
<path style=" stroke:none;fill-rule:nonzero;fill:rgb(99.215686%,99.215686%,99.215686%);fill-opacity:1;" d="M 61.886719 21.261719 C 62.597656 21.261719 63.367188 21.261719 63.675781 21.851562 C 64.054688 22.550781 64.003906 23.402344 63.550781 24.054688 C 63.417969 24.226562 63.21875 24.34375 63 24.371094 C 62.230469 24.371094 61.457031 24.371094 60.675781 24.371094 C 60.589844 24.359375 60.503906 24.332031 60.429688 24.289062 C 59.757812 23.96875 59.707031 23.0625 59.917969 22.105469 C 60.039062 21.507812 60.554688 21.273438 61.457031 21.261719 Z M 61.886719 21.261719 "/>
<path style=" stroke:none;fill-rule:nonzero;fill:rgb(99.215686%,99.215686%,99.215686%);fill-opacity:1;" d="M 66.417969 21.261719 C 67.128906 21.261719 67.910156 21.261719 68.230469 21.824219 C 68.613281 22.515625 68.589844 23.363281 68.167969 24.03125 C 68.058594 24.195312 67.886719 24.304688 67.691406 24.335938 C 66.855469 24.421875 66.015625 24.421875 65.179688 24.335938 C 64.457031 24.226562 64.203125 23.308594 64.421875 22.265625 C 64.550781 21.636719 65.03125 21.308594 65.855469 21.273438 Z M 66.417969 21.261719 "/>
<path style=" stroke:none;fill-rule:nonzero;fill:rgb(99.215686%,99.215686%,99.215686%);fill-opacity:1;" d="M 126.726562 24.484375 C 126.089844 24.484375 125.304688 24.484375 125 23.917969 C 124.609375 23.226562 124.644531 22.375 125.085938 21.714844 C 125.214844 21.542969 125.410156 21.421875 125.625 21.382812 C 126.394531 21.382812 127.179688 21.382812 127.949219 21.382812 C 128.0625 21.398438 128.171875 21.433594 128.269531 21.496094 C 128.890625 21.800781 128.964844 22.71875 128.722656 23.6875 C 128.585938 24.273438 128.085938 24.496094 127.140625 24.496094 Z M 126.726562 24.484375 "/>
<path style=" stroke:none;fill-rule:nonzero;fill:rgb(99.215686%,99.215686%,99.215686%);fill-opacity:1;" d="M 133.398438 22.890625 C 133.398438 23.453125 133.398438 24.117188 132.6875 24.324219 C 131.789062 24.628906 130.8125 24.605469 129.933594 24.25 C 129.730469 24.179688 129.578125 24.015625 129.515625 23.808594 C 129.515625 23.195312 129.515625 22.585938 129.515625 21.960938 C 129.539062 21.839844 129.609375 21.734375 129.710938 21.667969 C 130.546875 21.179688 131.546875 21.070312 132.46875 21.359375 C 133.273438 21.484375 133.410156 22.046875 133.410156 22.585938 Z M 133.398438 22.890625 "/>
<path style=" stroke:none;fill-rule:nonzero;fill:rgb(99.215686%,99.215686%,99.215686%);fill-opacity:1;" d="M 135.882812 24.484375 C 135.183594 24.484375 134.414062 24.484375 134.132812 23.871094 C 133.75 23.175781 133.804688 22.316406 134.277344 21.679688 C 134.484375 21.472656 134.757812 21.347656 135.050781 21.324219 C 135.660156 21.269531 136.277344 21.269531 136.886719 21.324219 C 137.394531 21.273438 137.863281 21.609375 137.976562 22.105469 C 138.0625 22.59375 138.0625 23.089844 137.976562 23.578125 C 137.757812 24.300781 137.253906 24.484375 135.882812 24.484375 Z M 135.882812 24.484375 "/>
<path style=" stroke:none;fill-rule:nonzero;fill:rgb(99.215686%,99.215686%,99.215686%);fill-opacity:1;" d="M 39.019531 43.183594 L 37.976562 43.050781 C 37.535156 43.050781 37.070312 42.792969 36.753906 43.222656 C 36.519531 43.316406 36.261719 43.316406 36.03125 43.222656 C 35.90625 43.222656 35.847656 42.902344 35.871094 42.730469 C 36.003906 42.175781 36.523438 41.796875 37.09375 41.851562 C 37.609375 41.851562 38.125 41.949219 38.636719 41.996094 C 38.917969 41.996094 39.203125 41.996094 39.484375 41.996094 C 39.765625 41.996094 40.292969 41.765625 40.304688 42.351562 C 40.316406 42.941406 40.144531 43.125 39.484375 43.085938 L 39.054688 43.085938 Z M 39.019531 43.183594 "/>
<path style=" stroke:none;fill-rule:nonzero;fill:rgb(99.215686%,99.215686%,99.215686%);fill-opacity:1;" d="M 74.707031 45.953125 C 74.472656 46.449219 73.902344 46.691406 73.382812 46.515625 C 73.066406 46.398438 72.828125 46.132812 72.746094 45.804688 C 72.84375 45.398438 73.175781 45.089844 73.589844 45.03125 C 74.003906 44.972656 74.414062 45.171875 74.621094 45.535156 C 75.011719 45.347656 75.421875 45.191406 75.84375 45.070312 C 76.089844 45.054688 76.332031 45.128906 76.53125 45.28125 C 76.707031 45.417969 76.804688 45.636719 76.789062 45.863281 C 76.773438 46.085938 76.648438 46.289062 76.457031 46.40625 C 75.953125 46.738281 75.390625 46.601562 74.707031 45.953125 Z M 74.707031 45.953125 "/>
<path style=" stroke:none;fill-rule:nonzero;fill:rgb(99.215686%,99.215686%,99.215686%);fill-opacity:1;" d="M 13.40625 52.003906 C 14.214844 51.5 14.742188 51.441406 15.144531 51.820312 C 15.304688 51.945312 15.398438 52.136719 15.398438 52.339844 C 15.398438 52.542969 15.304688 52.734375 15.144531 52.859375 C 14.765625 53.238281 14.152344 53.179688 13.40625 52.703125 C 12.648438 53.179688 12.046875 53.238281 11.667969 52.871094 C 11.507812 52.746094 11.414062 52.550781 11.414062 52.347656 C 11.414062 52.140625 11.507812 51.949219 11.667969 51.820312 C 12.082031 51.5 12.621094 51.5 13.40625 52.003906 Z M 13.40625 52.003906 "/>
<path style=" stroke:none;fill-rule:nonzero;fill:rgb(99.215686%,99.215686%,99.215686%);fill-opacity:1;" d="M 5.753906 45.832031 C 5.722656 46.089844 5.589844 46.324219 5.386719 46.484375 C 5.183594 46.644531 4.921875 46.71875 4.664062 46.6875 C 4.039062 46.6875 3.585938 46.320312 3.585938 45.832031 C 3.644531 45.292969 4.125 44.898438 4.664062 44.949219 C 5.226562 44.949219 5.753906 45.378906 5.753906 45.832031 Z M 5.753906 45.832031 "/>
<path style=" stroke:none;fill-rule:nonzero;fill:rgb(99.215686%,99.215686%,99.215686%);fill-opacity:1;" d="M 105.09375 45.082031 C 104.554688 45.125 104.085938 44.726562 104.039062 44.1875 C 104.167969 43.695312 104.617188 43.347656 105.128906 43.347656 C 105.640625 43.347656 106.089844 43.695312 106.21875 44.1875 C 106.121094 44.726562 105.640625 45.109375 105.09375 45.082031 Z M 105.09375 45.082031 "/>
<path style=" stroke:none;fill-rule:nonzero;fill:rgb(99.215686%,99.215686%,99.215686%);fill-opacity:1;" d="M 35.675781 44.152344 C 35.675781 44.59375 35.160156 45.046875 34.597656 45.058594 C 34.0625 45.109375 33.578125 44.734375 33.496094 44.203125 C 33.515625 43.941406 33.636719 43.703125 33.835938 43.539062 C 34.035156 43.371094 34.292969 43.292969 34.550781 43.320312 C 35.085938 43.253906 35.582031 43.617188 35.675781 44.152344 Z M 35.675781 44.152344 "/>
<path style=" stroke:none;fill-rule:nonzero;fill:rgb(99.215686%,99.215686%,99.215686%);fill-opacity:1;" d="M 74.679688 44.984375 C 74.472656 45.007812 74.265625 44.945312 74.105469 44.8125 C 73.945312 44.679688 73.847656 44.484375 73.835938 44.273438 C 73.835938 43.808594 74.179688 43.464844 74.753906 43.453125 C 74.988281 43.421875 75.226562 43.488281 75.410156 43.632812 C 75.597656 43.777344 75.71875 43.992188 75.746094 44.226562 C 75.746094 44.667969 75.367188 44.972656 74.679688 44.984375 Z M 74.679688 44.984375 "/>
</g>
</svg>
