<svg id="Layer_1" data-name="Layer 1" xmlns="http://www.w3.org/2000/svg" viewBox="0 0 194.4 43.95"><defs><style>.cls-1{fill:#fdfdfd;}</style></defs><path class="cls-1" d="M190.57,25c0,.59,0,1.11,0,1.64.06,1.31.14,2.63.22,3.94a3.13,3.13,0,0,1,.06.6c0,.23-.09.56-.27.63a1.23,1.23,0,0,1-.88-.1c-1-.58-1.87-1.22-2.79-1.83-2.31-1.53-4.61-3.07-6.94-4.58a2.25,2.25,0,0,0-1-.29c-2.49,0-5,0-7.47,0a1.76,1.76,0,0,1-.91-.3c-1.1-.81-2.17-1.65-3.25-2.49a1.52,1.52,0,0,0-1.73-.22c-.73.3-1.45.61-2.18.9s-1.07.16-1.36-.24-.1-.77.49-1c1.38-.62,2.76-1.22,4.13-1.85a1.4,1.4,0,0,1,1.45.09,6.77,6.77,0,0,1,1.14.79,4.4,4.4,0,0,0,3.22,1.07c2.38,0,4.76.06,7.13,0a4,4,0,0,1,2.65.8c1.18.86,2.43,1.64,3.66,2.46.08,0,.19.08.41.18,0-.31,0-.55,0-.78,0-.61-.09-1.21-.1-1.82s.27-.82,1-.82h4.39c1.42,0,1.95-.42,1.95-1.54q0-5.64,0-11.3c0-1-.52-1.43-1.8-1.43H151.91c-1.23,0-1.76.42-1.76,1.41,0,1.27,0,2.53,0,3.79,0,.57-.26.77-1,.78h-2c-.77,0-1.08-.18-1.08-.78,0-1.68,0-3.37.14-5s2.52-3.27,4.51-3.36c1.09,0,2.18-.08,3.26-.08q19,0,37.92,0c2.93,0,5,1.44,5.6,3.19a4.3,4.3,0,0,1,.22,1.42q0,5.82,0,11.63c0,2.67-2.46,4.62-5.79,4.62Z" transform="translate(-3.3 -4.02)"/><path class="cls-1" d="M159.27,25l.59,1c.56,0,1,.17,1,.79,0,.06.15.17.23.17.77,0,1,.37.92.88,1.08.28,1.31.48,1.16,1a1.48,1.48,0,0,1-1.38.69c-.5-.06-.61-.31-.48-1.06-1.24-.07-1.24-.07-1.26-.9-.34,0-.8,0-1-.16s-.13-.52-.19-.85c-.32-.06-1,.26-1.12-.3s.22-.91.9-1.26c-.34,0-.54,0-.74,0H152.2a5.8,5.8,0,0,0-1,.1,1.1,1.1,0,0,0-.92,1.21c0,1.38,0,2.77,0,4.16V37c0,1,.48,1.41,1.75,1.41h4.15c1.12,0,1.36.18,1.34,1.1,0,.68-.08,1.36-.12,2.18l2.13-1.32c.9-.56,1.79-1.15,2.71-1.69a2.08,2.08,0,0,1,1-.25q16.22,0,32.43,0a1.2,1.2,0,0,1,.83.27c.12.17,0,.51-.17.71a6,6,0,0,1-4.85,2.11H164.83a2.4,2.4,0,0,0-1.34.35c-2,1.31-4.08,2.6-6.13,3.89-1.08.69-2.15,1.38-3.26,2a1.24,1.24,0,0,1-.85.17.77.77,0,0,1-.32-.67c.07-1.52.2-3,.3-4.56,0-.38,0-.77,0-1.21h-1.67c-2.33,0-4.61-1.34-5.25-3.14a4.28,4.28,0,0,1-.16-1.38c0-3.55,0-7.1,0-10.65,0-2.26,1.78-3.77,4.06-4.33a8.68,8.68,0,0,1,1.85-.13c1.34,0,2.69,0,4,0a6,6,0,0,0,3.05-.89,20.9,20.9,0,0,1,3.14-1.3A2,2,0,0,1,164,20c-.72.35-1.44.68-2.12,1a1.32,1.32,0,0,0,.2,2.55,2.88,2.88,0,0,0,1.4,0,11.15,11.15,0,0,0,1.76-.62,1.36,1.36,0,0,1,1.44.17c1.06.83,2.11,1.66,3.15,2.5.32.26.45.57.06.86a.79.79,0,0,1-1-.08c-.28-.22-.55-.45-.84-.66a4.45,4.45,0,0,0-.43-.26l-.16.1a3.19,3.19,0,0,0,.3.42c.3.27.63.51.92.78s.27.58-.08.73a1.35,1.35,0,0,1-.93,0,8.79,8.79,0,0,1-1.09-.84,3.86,3.86,0,0,0-.54-.26l-.13.13.66.61c.17.15.37.28.53.44s.36.53,0,.78a.8.8,0,0,1-1,0c-.32-.23-.61-.49-.92-.72-.16-.13-.34-.24-.51-.36l-.14.07a1,1,0,0,0,.16.32,5.93,5.93,0,0,1,.74.65.93.93,0,0,1,.17.71.8.8,0,0,1-.65.24c-.28-.1-.67-.34-.69-.53a1.87,1.87,0,0,0-1.16-1.51,12.45,12.45,0,0,1-1.49-1.32,5.59,5.59,0,0,0-1.26-.94C160.07,24.84,159.6,25,159.27,25Z" transform="translate(-3.3 -4.02)"/><path class="cls-1" d="M44,20.21V21.8c0,1.5-1.08,2.42-3,2.51h-.17c-1.27,0-1.33,0-1.33-1s0-1.74,0-2.61c0-.37-.14-.48-.6-.48-2.12,0-4.25,0-6.37,0-1.3,0-2.61-1-2.62-2.05,0-2.4,0-4.79,0-7.19a2.38,2.38,0,0,1,2.4-2Q37,9,41.59,9A2.56,2.56,0,0,1,44,11c0,1.72,0,3.43,0,5.14,0,.38.12.51.62.51q6.39,0,12.79,0c.44,0,.62-.08.61-.47,0-1.18,0-2.36,0-3.59l-.59,0c-1.29,0-2.57,0-3.86,0-.56,0-.69.14-.67.55,0,.64,0,1.28,0,1.92,0,.37-.2.54-.67.53H49.14c-.49,0-.72-.15-.71-.55,0-1.36,0-2.71,0-4.06A2.6,2.6,0,0,1,50.82,9C53.91,9,57,9,60.1,9a2.4,2.4,0,0,1,2.38,2c0,2.41,0,4.83,0,7.24,0,.87-1.47,2-2.61,2-5,0-10,0-15,0Zm-9.58-7.66c0,1.32,0,2.56,0,3.8,0,.1.25.27.39.27,1.42,0,2.84,0,4.27,0,.27,0,.43-.06.43-.31,0-1.15,0-2.3,0-3.45,0-.11-.22-.31-.35-.31C37.62,12.54,36.07,12.55,34.43,12.55Z" transform="translate(-3.3 -4.02)"/><path class="cls-1" d="M81.7,20.21c-3,0-5.92,0-8.87,0-1.19,0-2.73-1.19-2.7-2.12.08-2.36,0-4.73,0-7.1A2.41,2.41,0,0,1,72.7,9q4.48,0,9,0a2.54,2.54,0,0,1,2.52,2.07c0,1.69,0,3.39,0,5.09,0,.38.13.51.62.5,1.13,0,2.26,0,3.38,0,.53,0,.66-.13.66-.53,0-3.77,0-7.53,0-11.3,0-.67.13-.75,1-.78,1.54-.05,2.75.33,3.34,1.56a1.34,1.34,0,0,1,.14.58q0,6,0,11.91c0,1-1.48,2.13-2.69,2.13C87.66,20.2,84.68,20.21,81.7,20.21Zm-7.07-7.66c0,1.31,0,2.55,0,3.79,0,.1.25.28.39.28q2.16,0,4.32,0c.13,0,.36-.19.36-.29,0-1.17,0-2.33,0-3.5,0-.1-.21-.27-.33-.27C77.84,12.54,76.28,12.55,74.63,12.55Z" transform="translate(-3.3 -4.02)"/><path class="cls-1" d="M15.1,20.21H6.63c-1.91,0-3.13-.82-3.16-2.33-.05-2.37,0-4.76.08-7.13A2.31,2.31,0,0,1,5.82,9C8.91,9,12,9,15.11,9c1.05,0,2.44,1.15,2.4,2-.08,1.69,0,3.39,0,5.09,0,.46.17.58.72.56q1.73,0,3.45,0c.58,0,.71-.15.71-.58,0-3.72,0-7.45,0-11.17,0-.79.08-.84,1.11-.86a3.22,3.22,0,0,1,3,1.24,1.47,1.47,0,0,1,.24.7c0,4.07,0,8.13,0,12.19,0,.88-1.49,2.07-2.64,2.06C21.1,20.19,18.1,20.21,15.1,20.21ZM13,12.55c-1.64,0-3.19,0-4.74,0-.13,0-.35.2-.35.31q0,1.72,0,3.45c0,.11.23.29.36.3q2.19,0,4.38,0c.12,0,.34-.17.34-.27C13,15.11,13,13.87,13,12.55Z" transform="translate(-3.3 -4.02)"/><path class="cls-1" d="M109.69,12.55c0,.82,0,1.58,0,2.34,0,.56-.11.65-.82.65h-3c-.46,0-.67-.16-.67-.53,0-1.4,0-2.8,0-4.2,0-.84,1.26-1.82,2.37-1.83,3.1,0,6.19,0,9.29,0,1.09,0,2.26.89,2.27,1.76,0,2.63,0,5.26,0,7.88,0,.6-.7,1-1.33,1.27a3.76,3.76,0,0,1-1.42.3c-5.79,0-11.57,0-17.36,0-1.23,0-2.82-1.16-2.81-2.25,0-3.8,0-7.6,0-11.4,0-1.56,1-2.45,3-2.53h.53c.81,0,1,.12,1,.76,0,3.75,0,7.5,0,11.26,0,.47.16.6.75.59,4.23,0,8.45,0,12.68,0,.52,0,.72-.09.7-.54,0-1.06,0-2.12,0-3.17a.52.52,0,0,0-.33-.37C112.91,12.54,111.35,12.55,109.69,12.55Z" transform="translate(-3.3 -4.02)"/><path class="cls-1" d="M60.71,44.81a3.62,3.62,0,0,1-3.37.47,1.5,1.5,0,0,1-1.19-1.58c0-1.79,0-3.58,0-5.36,0-.31.13-.42.51-.42,1.4,0,1.18-.1,1.19.89,0,1.34,0,2.68,0,4s.82,1.26,2,1c.5-.1.55-.48.57-.83,0-.53,0-.51,1-.53.52,0,.68.14.67.54,0,.68.21.94.7,1s.76-.3.78-1c0-.27,0-.52.49-.52,1.07,0,1.08,0,1.15.47,0,.17,0,.38.07.51s.42.47.64.48a.92.92,0,0,0,.65-.47,1.77,1.77,0,0,0,.06-.83c0-.35.16-.49.58-.45h.06c1.21,0,1,0,1,.78,0,.39.06.76.62.9a1.74,1.74,0,0,0,1.78-.37c.31-.39.53-.82.82-1.23a2.56,2.56,0,0,1,2.25-1.21,2.39,2.39,0,0,1,2.59,2.08,1.85,1.85,0,0,1-1.06,2,4.24,4.24,0,0,1-3.35,0,5.43,5.43,0,0,1-.59-.28,4,4,0,0,1-4.21-.14,1.65,1.65,0,0,1-1.48.72A13.05,13.05,0,0,1,63.85,45,2.25,2.25,0,0,1,60.71,44.81Zm13-.77v0H74c.43,0,.79-.1.89-.46s-.09-.68-.5-.87a1.82,1.82,0,0,0-1.86.28c-.6.55-.54.76.32,1C73.13,44,73.4,44,73.67,44Z" transform="translate(-3.3 -4.02)"/><path class="cls-1" d="M22.32,43.71c1-.18,1.18-.37,1.19-1.11,0-1.38,0-2.77,0-4.15,0-.42.15-.58.67-.52h.4c.48,0,.65.1.65.49,0,1.48,0,3,0,4.44,0,1,.27,1.09,1.52,1.11H29.4c1.3,0,1.64-.17,1.6-1.22,0-.49-.1-1-.17-1.55.49,0,.91,0,1.33,0,.11,0,.3.16.31.26a5.12,5.12,0,0,1,0,2.72,2.14,2.14,0,0,1-2.11,1.24H25.51a2.06,2.06,0,0,1-1.76-.91c-1.31,1-3.06.81-4.66,1.06-.09,0-.26-.12-.34-.21s0-.18,0-.28c0-1,0-1,1.2-1.07.54,0,.62-.2.54-.55-.25-1.23-.49-2.45-.76-3.67-.08-.36,0-.48.48-.48,1.22,0,1.24,0,1.44.93s.35,1.9.53,2.85A5.4,5.4,0,0,0,22.32,43.71Z" transform="translate(-3.3 -4.02)"/><path class="cls-1" d="M99.13,44.9c-1,.77-2.25.48-3.41.53-.69,0-1.39,0-2.08,0-1.45.07-2.39-.52-2.42-1.68-.06-1.82,0-3.64,0-5.46,0-.26.14-.37.46-.36,1.51,0,1.22-.11,1.24.93,0,1.32,0,2.64,0,4,0,1,.17,1.12,1.54,1.13.87,0,1.74,0,2.62,0a1.69,1.69,0,0,0,1.76-.8,7,7,0,0,1,.61-1,2.71,2.71,0,0,1,2.88-1.07,2.34,2.34,0,0,1,1.89,2,1.83,1.83,0,0,1-1.07,2,4.24,4.24,0,0,1-3.35,0C99.57,45.13,99.38,45,99.13,44.9Zm2.49-.82c.89-.06,1.26-.25,1.25-.7s-.58-.87-1.29-.83a1.56,1.56,0,0,0-1.42.83c0,.1.08.35.19.39C100.76,43.91,101.19,44,101.62,44.08Z" transform="translate(-3.3 -4.02)"/><path class="cls-1" d="M114.55,44.77a2.26,2.26,0,0,1-3.38,0c-.61.75-1.56.63-2.47.65h-1.56c-1.25,0-2.11-.61-2.13-1.7-.05-1.82,0-3.64,0-5.46,0-.26.14-.36.46-.35,1.5,0,1.23-.11,1.24.93,0,1.33,0,2.65,0,4,0,1,.16,1.12,1.54,1.13a12.48,12.48,0,0,0,1.62,0c.78-.08.94-.26,1-.88s0-.51,1-.54c.57,0,.73.17.68.58,0,.14-.06.31,0,.41a1.51,1.51,0,0,0,.66.49.54.54,0,0,0,.69-.42c0-.14.06-.28.1-.41s.08-.56.18-.58a6,6,0,0,1,1.27,0c.06,0,.14.17.16.27s0,.44.09.65a.64.64,0,0,0,.69.53.53.53,0,0,0,.61-.52,5.16,5.16,0,0,0-.11-1.24c-.08-.33.06-.38.4-.39,1.24-.05,1.25-.05,1.33.93a4.5,4.5,0,0,1,0,1.16,1.79,1.79,0,0,1-1.4,1.48,2.62,2.62,0,0,1-2.43-.4A.94.94,0,0,1,114.55,44.77Z" transform="translate(-3.3 -4.02)"/><path class="cls-1" d="M10.61,45.3a8.65,8.65,0,0,1-1.3,1.48,4.47,4.47,0,0,1-3.11.48c-2.55-.29-3.06-1.8-2.86-3.57l0,0c.17-.77.44-.93,1.42-.75a.44.44,0,0,1,.26.35c0,.32-.06.65-.06,1,0,.94.52,1.42,1.67,1.54a5.72,5.72,0,0,0,1.17,0c1.11-.13,1.6-.59,1.56-1.49a10,10,0,0,0-.2-1.2c-.1-.47,0-.55.57-.56.92,0,.93,0,1.12.69a.9.9,0,0,0,1,.73c1.26,0,2.52,0,3.77,0,.78,0,1-.27,1-.91s-.09-1.14-.15-1.8c.48,0,.91,0,1.35,0,.11,0,.29.18.29.28a12.82,12.82,0,0,1-.06,2.63c-.17.84-1.06,1.3-2.13,1.31-1.52,0-3,0-4.54,0A4.85,4.85,0,0,1,10.61,45.3Z" transform="translate(-3.3 -4.02)"/><path class="cls-1" d="M88.47,41.2c.47,0,.88,0,1.27,0,.14,0,.35.18.35.28a12.15,12.15,0,0,1,0,2.63c-.16.84-1.05,1.29-2.12,1.31-.26,0-.51,0-.76,0-.94,0-1.75-.11-2.13-.75a9.52,9.52,0,0,1-1.8.49c-1.65.11-2.68-1-2.25-2.26a2.48,2.48,0,0,1,1.55-1.44c.53-.22,1.09-.4,1.65-.58.38-.12.63-.29.57-.65s.14-.46.57-.46c1.3,0,1.11-.09,1.12.9,0,.81,0,1.62,0,2.43,0,.59.25.8.89.83.83,0,1.25-.2,1.26-.8S88.52,41.91,88.47,41.2Zm-3.88.72a16.4,16.4,0,0,0-1.84.75.7.7,0,0,0-.35.65c0,.16.42.34.68.38C84.39,43.87,85.07,43.11,84.59,41.92Z" transform="translate(-3.3 -4.02)"/><path class="cls-1" d="M54,45.53H52.76c-1.81,0-2.78-.81-2.7-2.25A2.63,2.63,0,0,1,53,41.1a2.14,2.14,0,0,1,1.78.92,4.09,4.09,0,0,1,.09,4.7,2.68,2.68,0,0,1-2.27,1c-.6,0-1.2-.06-1.8-.08-.37,0-.53-.16-.51-.44a1.21,1.21,0,0,0,0-.19c0-.81,0-.78,1-.73a11.82,11.82,0,0,0,2-.09A.9.9,0,0,0,54,45.53ZM52.93,44v0a5.48,5.48,0,0,0,.81,0c.12,0,.29-.16.3-.25.05-.77-1.14-1.41-2-1.09-.43.15-.67.43-.61.81s.44.52.88.55C52.5,44,52.71,44,52.93,44Z" transform="translate(-3.3 -4.02)"/><path class="cls-1" d="M45.9,43.39c0,1.35-1,2.14-2.68,2.14s-2.74-.78-2.74-2.1a2.48,2.48,0,0,1,2.69-2.38A2.47,2.47,0,0,1,45.9,43.39ZM43.18,44c.84,0,1.25-.21,1.26-.63s-.53-.84-1.23-.85-1.23.35-1.25.82S42.35,44,43.18,44Z" transform="translate(-3.3 -4.02)"/><path class="cls-1" d="M47.42,41.48c.53,0,1,0,1.41,0a.39.39,0,0,1,.31.2,7.66,7.66,0,0,1,.1,4.47,3.18,3.18,0,0,1-3.72,1.59c-.11,0-.26-.13-.27-.21a5.88,5.88,0,0,1,0-1.11c0-.07.34-.17.51-.16,1.47.11,2.09-.29,2.06-1.48,0-.89-.19-1.78-.3-2.68C47.51,41.93,47.46,41.75,47.42,41.48Z" transform="translate(-3.3 -4.02)"/><path class="cls-1" d="M173.77,32.83c0,.93-.94,1.65-2.18,1.67s-2.31-.72-2.32-1.63,1-1.65,2.2-1.66S173.76,31.89,173.77,32.83Z" transform="translate(-3.3 -4.02)"/><path class="cls-1" d="M164.82,31.21c1.24,0,2.25.73,2.26,1.64s-1,1.65-2.25,1.65-2.27-.73-2.26-1.67S163.55,31.2,164.82,31.21Z" transform="translate(-3.3 -4.02)"/><path class="cls-1" d="M178.19,31.21c1.25,0,2.22.73,2.21,1.65s-1,1.64-2.25,1.64-2.25-.74-2.23-1.69S176.91,31.2,178.19,31.21Z" transform="translate(-3.3 -4.02)"/><path class="cls-1" d="M35.27,42.43c0,.84,0,1.68,0,2.52,0,.35-.1.51-.59.49-1.27,0-1.11.09-1.11-.86,0-1.54,0-3.08,0-4.62,0-.4.13-.56.65-.54,1.15,0,1.05-.1,1.05.82C35.28,41,35.27,41.7,35.27,42.43Z" transform="translate(-3.3 -4.02)"/><path class="cls-1" d="M50,23.94c-.58,0-1.21,0-1.44-.49a1.66,1.66,0,0,1,.1-1.79.87.87,0,0,1,.57-.28,6.67,6.67,0,0,1,1.61,0,1.13,1.13,0,0,1,.75.6,2.52,2.52,0,0,1,0,1.28C51.53,23.81,51.13,23.94,50,23.94Z" transform="translate(-3.3 -4.02)"/><path class="cls-1" d="M53.85,21.31c.58,0,1.21,0,1.46.48a1.72,1.72,0,0,1-.1,1.8.69.69,0,0,1-.45.26c-.63,0-1.26,0-1.9,0a.53.53,0,0,1-.2-.07c-.55-.26-.59-1-.42-1.78.1-.49.52-.68,1.26-.69Z" transform="translate(-3.3 -4.02)"/><path class="cls-1" d="M57.55,21.31c.58,0,1.22,0,1.48.46a1.76,1.76,0,0,1-.05,1.8.57.57,0,0,1-.39.25,10,10,0,0,1-2.05,0c-.59-.09-.8-.84-.62-1.69q.16-.77,1.17-.81Z" transform="translate(-3.3 -4.02)"/><path class="cls-1" d="M106.81,23.94c-.52,0-1.16,0-1.41-.46a1.72,1.72,0,0,1,.07-1.8.71.71,0,0,1,.44-.27c.63,0,1.27,0,1.9,0a.62.62,0,0,1,.26.09c.51.25.57,1,.37,1.79-.11.48-.52.66-1.29.66Z" transform="translate(-3.3 -4.02)"/><path class="cls-1" d="M112.26,22.64c0,.46,0,1-.58,1.17a3.23,3.23,0,0,1-2.25-.06.55.55,0,0,1-.34-.36c0-.5,0-1,0-1.51a.37.37,0,0,1,.16-.24,2.8,2.8,0,0,1,2.25-.25c.66.1.77.56.77,1Z" transform="translate(-3.3 -4.02)"/><path class="cls-1" d="M114.29,23.94c-.57,0-1.2,0-1.43-.5a1.66,1.66,0,0,1,.12-1.79,1,1,0,0,1,.63-.29,8.34,8.34,0,0,1,1.5,0A.83.83,0,0,1,116,22a3.45,3.45,0,0,1,0,1.2C115.82,23.79,115.41,23.94,114.29,23.94Z" transform="translate(-3.3 -4.02)"/><path class="cls-1" d="M35.17,39.21l-.85-.11c-.36,0-.74-.21-1,.14a.78.78,0,0,1-.59,0c-.1,0-.15-.26-.13-.4a.94.94,0,0,1,1-.72c.42,0,.84.08,1.26.12.23,0,.46,0,.69,0s.66-.19.67.29-.13.63-.67.6h-.35Z" transform="translate(-3.3 -4.02)"/><path class="cls-1" d="M64.32,41.47a.88.88,0,0,1-1.08.46.83.83,0,0,1-.52-.58.83.83,0,0,1,1.53-.22,6.08,6.08,0,0,1,1-.38.84.84,0,0,1,.56.17.56.56,0,0,1-.06.92C65.34,42.11,64.88,42,64.32,41.47Z" transform="translate(-3.3 -4.02)"/><path class="cls-1" d="M14.25,46.41c.66-.41,1.09-.46,1.42-.15a.54.54,0,0,1,0,.85c-.31.31-.81.26-1.42-.13-.62.39-1.11.44-1.42.14a.55.55,0,0,1,0-.86C13.17,46,13.61,46,14.25,46.41Z" transform="translate(-3.3 -4.02)"/><path class="cls-1" d="M8,41.37a.8.8,0,0,1-.89.7c-.51,0-.88-.3-.88-.7a.81.81,0,0,1,.88-.72C7.57,40.65,8,41,8,41.37Z" transform="translate(-3.3 -4.02)"/><path class="cls-1" d="M89.14,40.76a.8.8,0,0,1-.86-.73.92.92,0,0,1,1.78,0A.89.89,0,0,1,89.14,40.76Z" transform="translate(-3.3 -4.02)"/><path class="cls-1" d="M32.44,40c0,.36-.42.73-.88.74a.83.83,0,0,1-.9-.7.78.78,0,0,1,.86-.72A.83.83,0,0,1,32.44,40Z" transform="translate(-3.3 -4.02)"/><path class="cls-1" d="M64.3,40.68a.62.62,0,0,1-.69-.58c0-.38.28-.66.75-.67a.72.72,0,0,1,.81.63C65.17,40.42,64.86,40.67,64.3,40.68Z" transform="translate(-3.3 -4.02)"/></svg>