<svg id="Layer_1" data-name="Layer 1" xmlns="http://www.w3.org/2000/svg" viewBox="0 0 1000 713"><defs><style>.cls-1{fill:#697eb8;}.cls-2{fill:#71a1d6;}.cls-3{fill:#667384;}.cls-4{fill:#b6c0c8;}.cls-5{fill:#4499d4;}.cls-6{fill:#14202e;}.cls-7{fill:#374154;}.cls-8{fill:#ef785a;}.cls-9{fill:#ec6343;}.cls-10{fill:#096fb7;}.cls-11{fill:#4b9baa;}.cls-12{fill:#b83d38;}.cls-13{fill:#9dadd9;}.cls-14{fill:#fff;}.cls-15{fill:#f4f3f4;}</style></defs><path class="cls-1" d="M72.08,720.86S-68.19,408.58,42.63,240c168.85-256.82,348.24,49.9,455.3-104.54C644.44-75.85,967.67-6.82,910.76,283.8c-39.91,203.84,155.49,164.56,65.08,441.86Z" transform="translate(0 -12.66)"/><path class="cls-2" d="M344.22,544.25H492.4a0,0,0,0,1,0,0v19.08a0,0,0,0,1,0,0h-132a16.16,16.16,0,0,1-16.16-16.16v-2.92A0,0,0,0,1,344.22,544.25Z"/><polygon class="cls-3" points="421.69 701.3 412.75 701.3 410.24 563.33 423.9 563.33 421.69 701.3"/><polygon class="cls-3" points="460.56 701.3 373.58 701.3 373.58 691.78 417.91 686.93 460.56 691.78 460.56 701.3"/><path class="cls-3" d="M365.13,712.47c0-4.79,3.2-8.68,7.15-8.68s7.16,3.89,7.16,8.68-3.2,8.67-7.16,8.67S365.13,717.26,365.13,712.47Z" transform="translate(0 -12.66)"/><path class="cls-3" d="M452.11,712.47c0-4.79,3.2-8.68,7.15-8.68s7.16,3.89,7.16,8.68-3.21,8.67-7.16,8.67S452.11,717.26,452.11,712.47Z" transform="translate(0 -12.66)"/><path class="cls-3" d="M380.48,563.33h73.18a0,0,0,0,1,0,0v0a9.05,9.05,0,0,1-9.05,9.05H389.53a9.05,9.05,0,0,1-9.05-9.05v0A0,0,0,0,1,380.48,563.33Z"/><path class="cls-4" d="M356.63,576c-6.85,0-12.41-6.74-12.41-15.06V440.68c0-23.81,12.84-43.11,28.67-43.11h64.85c15.84,0,28.68,19.3,28.68,43.11V576Z" transform="translate(0 -12.66)"/><path class="cls-3" d="M357.91,576c-3.76,0-6.8-3.7-6.8-8.26v-127c0-23.81,12.84-43.11,28.67-43.11h64.85c15.84,0,28.68,19.3,28.68,43.11V576Z" transform="translate(0 -12.66)"/><path class="cls-4" d="M508.2,576H349.56c-4.34,0-7.86-4.27-7.86-9.54h0c0-5.27,3.52-9.54,7.86-9.54H508.2c4.34,0,7.87,4.27,7.87,9.54h0C516.07,571.72,512.54,576,508.2,576Z" transform="translate(0 -12.66)"/><path class="cls-5" d="M599.51,724.55H540.45c-2.84-4.2-4.43-24-4-29,.09-1,1.15-5.76,1.15-5.76s21.81-11.16,24.58,3.82q.12.7.3,1.38c3.49,14,19.14,20.37,28.18,22.15C596.54,718.26,598.71,722,599.51,724.55Z" transform="translate(0 -12.66)"/><path class="cls-6" d="M438.5,501.05c2.13,0,80.85,13.34,97.23,35.66C543.91,547.86,565.31,694,565.31,694s-9.95,8.56-31.82.54c0,0-28.86-94.54-27.67-121.26.33-7.39-70-10.48-82.42-14S395.51,547,402.21,532.46,438.5,501.05,438.5,501.05Z" transform="translate(0 -12.66)"/><path class="cls-5" d="M560.19,724.55H501.13c-2.84-4.2-1.79-19.71-1.36-24.78.09-1,.15-1.61.15-1.61s20.16-19.56,22.93-4.58q.14.7.3,1.38c3.49,14,19.15,20.37,28.19,22.15C557.21,718.26,559.39,722,560.19,724.55Z" transform="translate(0 -12.66)"/><path class="cls-7" d="M407.14,508.77c2.13,0,96.15,5.66,112.53,30.25,8.18,12.28,9.4,154.11,9.4,154.11s-10.13,15.22-32,6.38c0,0-20.09-75.25-18.62-126.49.24-8.14-58.52-9.08-74.65-10.63-20.47-2-25.64-43.63-18.94-59.61S407.14,508.77,407.14,508.77Z" transform="translate(0 -12.66)"/><path class="cls-5" d="M427.09,348.37l-1.18.29c-5.25,1.29-10.41-2.87-11.47-9.23L413.19,332c-1.06-6.36,2.37-12.62,7.62-13.91l1.18-.29c5.25-1.28,10.42,2.87,11.48,9.24l1.24,7.47C435.77,340.83,432.34,347.09,427.09,348.37Z" transform="translate(0 -12.66)"/><path class="cls-5" d="M469.35,507.28C457.56,530.1,384,537,384,537c-1.24-3.65-6.84-62.48-7.79-66.54a237,237,0,0,1-4.93-32.3c0-.14,0-.29,0-.43a454.61,454.61,0,0,1-1.47-48.28c.13-6.35.33-10.27.35-10.46h0c.17-.1.36-.18.54-.27,4.45-2.27,8.72-4.22,12.81-5.91h0q5.16-2.13,9.94-3.71A124.61,124.61,0,0,1,409,364.93a96.13,96.13,0,0,1,15.44-1.72l.62,0c1.21,0,2.39,0,3.53,0,11.5.3,19.15,3.08,23,4.93.53.25,1,.49,1.38.71l.16.08c.43.23.77.43,1,.58a.24.24,0,0,1,.09.06l.33.22L460.68,447Z" transform="translate(0 -12.66)"/><path class="cls-5" d="M547.13,465.36c-8.42,4.74-58.47,8.71-63.28,7-2.46-.87-12.78-11.89-23.16-25.44h0C450.85,434.13,441,419,437.61,408.17a79.9,79.9,0,0,1-1-42.13s12.77-.06,18,3.75,35,70.28,38.95,72,51.14,5,56.54,8.14C550.11,450,555.53,460.63,547.13,465.36Z" transform="translate(0 -12.66)"/><path class="cls-8" d="M425.09,365.89l0,3.76s.86,11.75-11.07,13.49-21-4.55-20.67-13.61c1.07-7,2.24-11.85,2.31-17.66a49.73,49.73,0,0,0-.43-7l23.13-.6,6.81,1.34Z" transform="translate(0 -12.66)"/><path class="cls-9" d="M425.15,345.57l-.06,20.32a16.84,16.84,0,0,1-8.34,2.25c-10.63,0-21.21-20.72-21.54-23.31Z" transform="translate(0 -12.66)"/><path class="cls-8" d="M426.51,355.44s-29.61,7.31-33.08-15.12-9.63-36.58,9.13-42.2,23.77,2.1,26.43,9.25S434.13,353,426.51,355.44Z" transform="translate(0 -12.66)"/><path class="cls-6" d="M434.73,290.69a53.24,53.24,0,0,1-18-5.87c-7.92-4.15-17.89.45-21.12,2.53a6.48,6.48,0,0,1,.78-2.36,5.31,5.31,0,0,0-1.66,3c-.15.13-.22.22-.18.25a4.65,4.65,0,0,0-2.71.22,1,1,0,0,1,1,.45.61.61,0,0,0,.12.16c-12.33,7.25-13.44,30.88-9.46,36.34C388.28,332,394,346.79,394,346.79s2.08-3.5,1.21-9.29,3.25-5.8,8.45-8.44.86-10,5.41-14.48,21.27-1.89,21-5.31C436.35,306.52,434.73,291.46,434.73,290.69Z" transform="translate(0 -12.66)"/><path class="cls-10" d="M381.18,515.25c-1.42-11.62-4.8-26.37-6.38-38.92-1.32-10.44-2.58-27.24-3.57-38.19,0-.14,0-.29,0-.43.06,0,.17.25.24.15,3.27-4.82,12.19-10.09,23,9.1,2.16,3.82,11,27.32,10.67,32.14C403.67,501.05,381.18,515.25,381.18,515.25Z" transform="translate(0 -12.66)"/><path class="cls-8" d="M388.22,482a12.92,12.92,0,0,1,1.14-6.62s1.39-1.09,3.23-2.36c2.74-1.88,6.49-4.15,8.19-3.78.3.06.72.17,1.2.31,4,1.18,13.43,4.69,14.85,6.74,1.17,1.69,2.76,3.84,3.86,5.71Z" transform="translate(0 -12.66)"/><path class="cls-5" d="M394.43,482H315.3a7,7,0,0,1,.06-3.22c2.36-7.23,7-19.13,12.27-31.9,3.91-9.39,8.18-19.26,12.22-28.08,5.61-12.25,10.74-22.49,13.76-26.69a38,38,0,0,1,8.52-8.37,56.63,56.63,0,0,1,7.94-4.81h0c.17-.1.36-.18.54-.27a61.32,61.32,0,0,1,9.87-3.9s.06,3,.07,7.7c0,13.52-.41,40.77-4,47.42a92.51,92.51,0,0,1-5.15,7.94l-.2.28c-1.25,1.77-2.64,3.68-4.09,5.65-8.26,11.22-18.72,24.39-20,26L347,470h.16l22.18.37,6.81.12,14.11.23a5.76,5.76,0,0,1,2.32,2.39C394,475.48,394.37,479,394.43,482Z" transform="translate(0 -12.66)"/><path class="cls-10" d="M547.13,465.36c-8.42,4.74-58.47,8.71-63.28,7-2.46-.87-12.78-11.89-23.16-25.44.51.08,5.26-9.51,26.9,13.44,0,0,5.67,3.06,21.1,1.35S543.93,459.41,547.13,465.36Z" transform="translate(0 -12.66)"/><path class="cls-5" d="M402,348.37l-1.18.29c-5.25,1.29-10.42-2.87-11.48-9.23L388.14,332c-1.07-6.36,2.36-12.62,7.61-13.91l1.18-.29c5.25-1.28,10.42,2.87,11.48,9.24l1.24,7.47C410.71,340.83,407.29,347.09,402,348.37Z" transform="translate(0 -12.66)"/><path class="cls-5" d="M392.86,321.46c-.79-1.73-1.95-15.64,1.2-26.71,1.53-5.35,4-8.41,7.08-10.47a6.63,6.63,0,0,1,3.65-1.14l3.11.06c-10.23,5.26-12.61,33.36-11.81,36.35a1,1,0,0,0-.08-.2Z" transform="translate(0 -12.66)"/><path class="cls-5" d="M422.72,350.72c-17.2,0-25.71-16.48-25.79-16.65l1.54-1.14-.77.57.77-.57c.08.16,8.09,15.6,24.25,15.6h.33l0,2.18Z" transform="translate(0 -12.66)"/><path class="cls-10" d="M399.26,341.06l-.58.14c-2.62.64-5.19-1.43-5.72-4.6l-.62-3.72c-.53-3.18,1.18-6.29,3.79-6.94l.59-.14c2.62-.64,5.19,1.43,5.72,4.6l.62,3.73C403.59,337.3,401.88,340.42,399.26,341.06Z" transform="translate(0 -12.66)"/><path class="cls-5" d="M424.86,351.44h-1.62a1.69,1.69,0,0,1-1.5-1.82h0a1.69,1.69,0,0,1,1.5-1.82h1.62a1.69,1.69,0,0,1,1.5,1.82h0A1.69,1.69,0,0,1,424.86,351.44Z" transform="translate(0 -12.66)"/><path class="cls-8" d="M218,715.57c.35,5.76,7.06,5.83,14.67,4.75s5.59,1.27,16.25,1.45,14.34-4.09,14.85-5.94c.46-1.64-4.67-3-10.16-4.64l-2.08-.62c-6.19-1.91-10.3-7.53-15.59-12.44-5-4.65-11.5-21.47-11.5-21.47l-14.56-.79s6.13,15.07,8.44,21.57c1.35,3.83.78,8.53.19,12.13A27.28,27.28,0,0,0,218,715.57Z" transform="translate(0 -12.66)"/><path class="cls-6" d="M232.68,720.32c7.62-1.07,5.59,1.27,16.25,1.45s14.34-4.09,14.85-5.94c.46-1.64-4.67-3-10.16-4.64l-.07.12a25.58,25.58,0,0,1-15.64,3.4c-7.16-.87-14.46-4.49-19.39-5.14a27.28,27.28,0,0,0-.51,6C218.36,721.33,225.07,721.4,232.68,720.32Z" transform="translate(0 -12.66)"/><path class="cls-8" d="M117.44,716.76c.34,5.77,7,5.84,14.67,4.78s5.59,1.27,16.25,1.46,14.33-4.07,14.85-5.92c.46-1.63-4.67-3-10.16-4.65-.69-.2-1.39-.41-2.08-.63-6.19-1.91-10.29-7.54-15.58-12.45-5-4.65,0-32.21,0-32.21l-16-1.89s.77,23.2.76,33.75c0,4.16-1.59,8.16-2.18,11.77A27.19,27.19,0,0,0,117.44,716.76Z" transform="translate(0 -12.66)"/><path class="cls-6" d="M132.11,721.54c7.61-1.06,5.59,1.27,16.25,1.46s14.33-4.07,14.85-5.92c.46-1.63-4.67-3-10.16-4.65l-.07.12a25.57,25.57,0,0,1-15.64,3.38c-7.16-.88-14.45-4.51-19.39-5.16a27.19,27.19,0,0,0-.51,6C117.78,722.53,124.49,722.6,132.11,721.54Z" transform="translate(0 -12.66)"/><path class="cls-6" d="M164.18,240.54c2.76-13.75-1.24-20.16-4.84-23.56-1.71-5.07-3.66-8.71-5.66-10.09-3.64-2.51-8-2.78-11.05-2.56A4.78,4.78,0,0,1,145,203c-1.9-.34-6.12,1.93-6.12,1.93-26.32-12.29-30.45,34.69-29.9,45.6s.48,23.77-13.22,32.37c-26.12,16.41,8.69,78.25,8.69,78.25-.67-8.82,32.9-55.37,50.41-69.31,4.27-7.61,5.78-21.05,5.9-22.11-.74,10.66-2.24,16.63-3.59,20C165.11,280.81,166.3,259.43,164.18,240.54Z" transform="translate(0 -12.66)"/><path class="cls-8" d="M153.79,292.52c.08.05-8.46,5.43-14.89,3.3-6-2-10-11.5-9.91-11.53,2.56-.61,3.3-4.88,3.25-23.2l1.15.27L152.85,266s-.44,7.43-.45,14.42C152.38,286.32,152.68,291.89,153.79,292.52Z" transform="translate(0 -12.66)"/><path class="cls-9" d="M152.85,266s-.44,7.43-.45,14.42c-10.89-.37-16.65-12.41-19-19.09Z" transform="translate(0 -12.66)"/><path class="cls-5" d="M232,686c1,3.62-1.19,7.36-4.32,7.54l-7.6.43-8,.3a6.06,6.06,0,0,1-5.2-2.88c-6.42-9.55-26.19-41.38-38.17-87.62-.34-1.3-.7-2.61-1.07-3.94-7.92-28-24.33-63.11-33-94.91-1.38-5.07-2.61-9.83-3.72-14.34-.36-1.45-.7-2.87-1-4.27-6.38-26.85-8.22-44.47-9.92-63.31l62.45.61S195.56,547.51,232,686Z" transform="translate(0 -12.66)"/><path class="cls-4" d="M173.67,380.11c-.16,36,4.36,51.49,4.36,51.49s-26.74,16.47-58.52,4.34c-.38-.14-8.73-59.52-7.94-64.9a137.68,137.68,0,0,0,.77-30.18,287,287,0,0,0-7.7-47.41c8.66-2.39,16.77-6.58,25.78-10.68,2.07,3.13,8.41,6.4,13.91,6.25,6.33-.17,8.38-3.45,8-7,6.75,4.55,12.13,8.85,12.13,8.85,5.74,12.08,17.36,23.8,18.21,42.33C182.92,337.71,173.67,379.1,173.67,380.11Z" transform="translate(0 -12.66)"/><path class="cls-11" d="M120,384.12c-2.73,4.69-8,33.16-21,36.74,6.71-20.29,11.81-29.19,12.6-35.43a185.64,185.64,0,0,0,.77-35.06c4.36-9.27,7.62-15.62,7.62-15.62.34-1.49,6.92-26.18,9-4.11S123,378.88,120,384.12Z" transform="translate(0 -12.66)"/><path class="cls-7" d="M164.22,288.18s9.26,6.1,13.17,12.11,26.78,55.86,26.78,60.85S181,362.86,181,362.86Z" transform="translate(0 -12.66)"/><path class="cls-8" d="M156.49,272.66s-25.76.51-25.78-18.94-3.36-32.5,13.09-33.65,19.65,6.27,21,12.76S163.19,272,156.49,272.66Z" transform="translate(0 -12.66)"/><path class="cls-6" d="M155.54,219.59s-7.06,22.83-17.88,26.2-15.52-.14-15.52-.14a39,39,0,0,0,10-22S150.21,208.73,155.54,219.59Z" transform="translate(0 -12.66)"/><path class="cls-6" d="M153.79,221.45s5.27,5.09,6.55,10.05,1.86,15.15,4.31,14.8c0,0,5.32-15.51-.65-24.29C157.66,212.71,153.79,221.45,153.79,221.45Z" transform="translate(0 -12.66)"/><path class="cls-7" d="M152.38,282s14.91,44.65,15.35,53.68,1.75,147.75,1.75,147.75-.88,6.37,9.21,3.72,12.71-5.32,12.71-5.32-9.65-85.56-7-115.33-20.16-78.3-20.16-78.3Z" transform="translate(0 -12.66)"/><path class="cls-10" d="M220.1,694l-8.74.32a4.72,4.72,0,0,1-4.05-2.21c-5.87-8.62-26.34-40.88-38.63-88.31-.34-1.3-.7-2.61-1.07-3.94-7.92-28-24.33-63.11-33-94.91-1.38-5.07-2.61-9.83-3.72-14.34-.36-1.45-.7-2.87-1-4.27l9.19-8.46s27.62,54.21,36.16,105.23C182.66,627.4,212.4,680.72,220.1,694Z" transform="translate(0 -12.66)"/><path class="cls-5" d="M140,587.84c.15,23.47-.76,75.78-3.12,101.35-.22,2.34-1.85,4.1-3.79,4.1H126.6c-2.74,0-4.8,0-6.16,0a2.69,2.69,0,0,1-2.42-2.46c-6.48-40-11.12-73.19-14.51-101.89-2.85-24-5.37-44.62-7.31-62.35s-3.32-32.78-3.8-45.4c-.08-2-.13-3.92-.17-5.8s0-3.72,0-5.5l54-6.37C145.49,506.94,140,573.42,140,587.84Z" transform="translate(0 -12.66)"/><path class="cls-10" d="M126.6,693.29c-2.46,0-4.37,0-5.73,0a3.27,3.27,0,0,1-2.94-3c-6.43-39.75-11-72.8-14.42-101.38-2.85-24-5.37-44.62-7.31-62.35s-3.32-32.78-3.8-45.4l19.8,14.12s-12.64,5.41-7.82,46.33S119.89,687.5,126.6,693.29Z" transform="translate(0 -12.66)"/><path class="cls-7" d="M129.15,480.75s-3.8,16.65-17,14.52-31.85-11.69-31.85-11.69S86,462.05,93,433.77c8.47-34.24,18.94-78.39,23.87-106.23,1.39-7.8,2.34-14.32,2.69-19l10.91-25.67s16.26,44.27,17.14,55.43S129.15,480.75,129.15,480.75Z" transform="translate(0 -12.66)"/><path class="cls-6" d="M128.57,361.7c-.59,18.07-4.1,53.15-35.37,71.92a2.07,2.07,0,0,1-.25.15c8.47-34.24,18.94-78.39,23.87-106.23C122.57,338,128.89,351.75,128.57,361.7Z" transform="translate(0 -12.66)"/><path class="cls-8" d="M116,336.65l14.4-53.76S112.23,289.44,103.1,295c0,0-5.7,8.92-9.23,29.5,0,0-3.73,49.4,4.6,67.47,0,0,26.3,6.37,68.38-11.17V369.14s-46,2.93-55.45,4.25Z" transform="translate(0 -12.66)"/><path class="cls-7" d="M130.42,282.89s-26.69,2.28-33.12,19.64-8.48,75.12-.3,92.12c0,0,11.27,3.89,31.19-.62l.74-.17s6.36-18.87.66-22.59c0,0-16.8,1.06-15-5.67S130.42,282.89,130.42,282.89Z" transform="translate(0 -12.66)"/><path class="cls-12" d="M197.35,376.37l-.79,3.06-43.8-16.52a2.35,2.35,0,0,1-.3-1.88c.32-1.18,1.08-1.18,1.08-1.18Z" transform="translate(0 -12.66)"/><polygon class="cls-12" points="200.51 366.6 197.34 363.71 196.56 366.77 200.51 366.6"/><path class="cls-8" d="M166.85,369.14s9.94-7.42,14.11-6.28,14.79,10.47,9.68,12.49-9.25-.1-11.22,1.37-3.41,4.15-12.57,4.11S166.85,369.14,166.85,369.14Z" transform="translate(0 -12.66)"/><polygon class="cls-6" points="163.2 422.15 208.71 422.17 226.23 341.94 180.72 341.92 163.2 422.15"/><path class="cls-13" d="M182.69,349.05s-3.49.69-2,5.53h15.54l-5-5.53Z" transform="translate(0 -12.66)"/><path class="cls-14" d="M182.69,349.05s6.86,0,9.24,6.7c2.91,8.19,1.67,31.08,1.67,31.08h36.51s5.77-26.9-6.28-37.78Z" transform="translate(0 -12.66)"/><path class="cls-8" d="M217.35,394.55s-5.49-5-7.19-2.12,1.3,17.57,4.9,16.49S218.7,397.53,217.35,394.55Z" transform="translate(0 -12.66)"/><path class="cls-4" d="M462.6,276.5c-.9-27.05,17.8-39.06,36.92-39.06s39.93,6,41.73,42c1.16,23.14-9,37.37-38.31,37.37-9.88,0-17.56-1.88-23.44-5.25L464.86,327.3l7.19-21.8C465.68,298.31,463,288.17,462.6,276.5Z" transform="translate(0 -12.66)"/><path class="cls-4" d="M723.87,246.7c1.64-49.35-32.47-71.28-67.36-71.28s-72.84,11-76.13,76.58c-2.12,42.21,16.44,68.19,69.89,68.19,18,0,32-3.45,42.77-9.59l26.72,28.78-13.13-39.79C718.26,286.48,723.16,268,723.87,246.7Z" transform="translate(0 -12.66)"/><path class="cls-6" d="M289.42,725.19h-.1c-.6,0-1.09-1.61-1.07-3.58l1.62-230,4.78-1.83-4.08,231.87C290.54,723.63,290,725.19,289.42,725.19Z" transform="translate(0 -12.66)"/><rect class="cls-6" x="277.2" y="481.94" width="285.21" height="13.88" rx="6.75" transform="translate(839.61 965.1) rotate(180)"/><path class="cls-6" d="M903.75,725.19h.1c.6,0,1.08-1.61,1.07-3.58l-1.62-230-4.78-1.83,4.08,231.87C902.63,723.63,903.14,725.19,903.75,725.19Z" transform="translate(0 -12.66)"/><rect class="cls-6" x="534.76" y="481.94" width="379.31" height="13.88" rx="6.94" transform="translate(1448.83 965.1) rotate(-180)"/><path class="cls-7" d="M502.08,481.86H444.86c0-3.05,2-5.53,4.56-5.53h52.66Z" transform="translate(0 -12.66)"/><polygon class="cls-7" points="590.38 393.65 569.16 469.2 480.12 469.2 501.92 393.65 590.38 393.65"/><polygon class="cls-7" points="590.38 393.65 569.35 468.5 569.16 469.2 481.42 469.2 503.22 393.65 590.38 393.65"/><path class="cls-5" d="M544,443.39c-.55,2.88-2.93,5.22-5.31,5.22s-3.87-2.34-3.32-5.22,2.93-5.23,5.31-5.23S544.54,440.5,544,443.39Z" transform="translate(0 -12.66)"/><polygon class="cls-6" points="606.49 393.65 627.85 469.28 716.74 469.2 694.95 393.65 606.49 393.65"/><polygon class="cls-15" points="609.02 395.31 629.55 468.52 629.75 469.2 715.44 469.2 694.15 395.31 609.02 395.31"/><path class="cls-6" d="M627.85,481.94,752,481.86h0c0-3.05-2-5.53-4.56-5.53H626.57Z" transform="translate(0 -12.66)"/><rect class="cls-5" x="779.16" y="310.59" width="20.05" height="30.29" rx="10.03"/><path class="cls-6" d="M740,698.51s-1.26,23.67-5,24c-.51,0-19.16,0-19.16,0L692,722.27s.16-6.95,7.13-8.41,18.62-7.35,22.86-18.49C726.41,683.65,740,698.51,740,698.51Z" transform="translate(0 -12.66)"/><path class="cls-6" d="M808.12,503.85c.91.93,25.16,32.79,23.18,57.26-.58,7.19-5.69,12.59-11.64,12.59H790.11s-30.14,6.53-30.86,14.43-6.89,50.47-19.11,111c0,0-9,3.76-14.47,1.08-7.23-3.55-8.28-7.32-8.28-7.32s7.29-135.48,13-145,65-37.88,84.2-40.7S808.12,503.85,808.12,503.85Z" transform="translate(0 -12.66)"/><path class="cls-8" d="M636.78,470.06s-17.14-4.83-21.52,0-5.78,11.84-5.78,11.84h27.3Z" transform="translate(0 -12.66)"/><path class="cls-6" d="M698.22,698.51s-1.25,23.67-5,24c-.5,0-19.16,0-19.16,0l-23.81-.23s.17-6.95,7.13-8.41,18.63-7.35,22.86-18.49C684.67,683.65,698.22,698.51,698.22,698.51Z" transform="translate(0 -12.66)"/><path class="cls-7" d="M830.53,503.85c.69.7,5.93,17.83,9.44,37.27,3,16.74-7.48,32.58-21.61,32.58H749.63s-30.15,6.53-30.86,14.43-6.89,50.47-19.12,111c0,0-9,2.88-16.09-.78-3.76-1.94-6.72-6.61-6.72-6.61S684.19,557.38,690,547.85s65-37.88,84.2-40.7S830.53,503.85,830.53,503.85Z" transform="translate(0 -12.66)"/><path class="cls-8" d="M792.43,382.73,781.8,395.1H763.69c0-1.76,0-9.13.11-15.8,0-.39,0-.78,0-1.17,0-1.48,0-2.91.05-4.21,0-3.68.06-6.34.06-6.34l4.66-3.86,10.34-8.59,5.59-4.63c0,.11.47,6.18.54,7.06C786.28,373.27,792.43,382.73,792.43,382.73Z" transform="translate(0 -12.66)"/><path class="cls-10" d="M766.1,380.5c.35-.17,19.94-10.83,22.23-9.91s5.15,9.4,5.15,9.4L759,389.45S761.69,382.75,766.1,380.5Z" transform="translate(0 -12.66)"/><path class="cls-5" d="M850.85,451.69c-3.73-27.91-19.49-48.8-26.24-56.63-4.53-8.25-31.13-15.07-31.13-15.07L759,389.45S739.53,392,728.57,414c-6.79,13.59-26.21,44.7-39,45.67s-52.82,10.39-52.82,10.39V482l61.08,2a8.84,8.84,0,0,0,2.23-.22c5.25-1.2,27.78-6.63,39-13.7,1.79,35,3.91,88.4,14,96.88,10.66,9,85.61,10.17,93.55-3.5,4.06-7-.92-48.44-7.14-88.39C847.19,470.65,852.42,463.39,850.85,451.69Z" transform="translate(0 -12.66)"/><path class="cls-9" d="M781.62,362.46l-.93.69s-8.52,7.44-16.83,10.78c0-3.68.06-6.34.06-6.34l4.66-3.86Z" transform="translate(0 -12.66)"/><path class="cls-8" d="M757.58,367.78s27.86,4,29.65-17.08,6.58-34.75-11.13-38.2-21.86,4.17-23.87,11S750.37,366.2,757.58,367.78Z" transform="translate(0 -12.66)"/><path class="cls-6" d="M753,321.37s5.26,22.87,9.07,21,7.29-3.47,7.79,3.67,2.71,15.51,15.12,14,17.62-42.74,13.15-49.22C785.2,292.08,735.05,299.08,753,321.37Z" transform="translate(0 -12.66)"/><path class="cls-2" d="M749.3,559.27H880.54a0,0,0,0,1,0,0v19a0,0,0,0,1,0,0H733.23a0,0,0,0,1,0,0v-2.9A16.06,16.06,0,0,1,749.3,559.27Z" transform="translate(1613.77 1124.84) rotate(180)"/><rect class="cls-4" x="709.71" y="559.27" width="118.29" height="18.96" rx="9.48" transform="translate(1537.71 1124.84) rotate(180)"/><polygon class="cls-4" points="803.53 702.73 812.42 702.73 814.91 565.57 801.33 565.57 803.53 702.73"/><polygon class="cls-4" points="764.89 702.73 851.35 702.73 851.35 693.26 807.28 688.44 764.89 693.26 764.89 702.73"/><path class="cls-4" d="M859.75,713.9c0-4.76-3.18-8.62-7.11-8.62s-7.11,3.86-7.11,8.62,3.18,8.63,7.11,8.63S859.75,718.67,859.75,713.9Z" transform="translate(0 -12.66)"/><path class="cls-4" d="M773.29,713.9c0-4.76-3.19-8.62-7.11-8.62s-7.12,3.86-7.12,8.62,3.19,8.63,7.12,8.63S773.29,718.67,773.29,713.9Z" transform="translate(0 -12.66)"/><path class="cls-4" d="M768,587.23h80.26c4.1,0,7.43-4,7.43-9H760.57C760.57,583.2,763.89,587.23,768,587.23Z" transform="translate(0 -12.66)"/><path class="cls-4" d="M866.92,578.23c3.74,0,6.77-3.67,6.77-8.2V443.73c0-23.67-12.76-42.85-28.5-42.85H780.72c-15.74,0-28.51,19.18-28.51,42.85v134.5Z" transform="translate(0 -12.66)"/><path class="cls-3" d="M868.2,578.23c6.81,0,12.34-6.7,12.34-15V443.73c0-23.67-12.76-42.85-28.51-42.85H787.57c-15.74,0-28.51,19.18-28.51,42.85v134.5Z" transform="translate(0 -12.66)"/><path class="cls-5" d="M747.67,368.24c15.9-6.09,19.8-24.34,19.84-24.53l-1.7-.5.85.25-.84-.26c0,.18-3.73,17.29-18.67,23l-.3.11.5,2Z" transform="translate(0 -12.66)"/><path class="cls-5" d="M745.87,369.66l1.5-.57a1.87,1.87,0,0,0,1-2.22h0a1.43,1.43,0,0,0-1.83-1.15l-1.49.58a1.85,1.85,0,0,0-1,2.21h0A1.42,1.42,0,0,0,745.87,369.66Z" transform="translate(0 -12.66)"/><path class="cls-5" d="M767.76,361.11l-1.16.19c-5.14.87-9.94-3.53-10.65-9.77l-.84-7.32c-.71-6.23,2.91-12,8.06-12.91l1.15-.19c5.15-.87,9.94,3.53,10.65,9.76l.84,7.32C776.53,354.43,772.9,360.24,767.76,361.11Z" transform="translate(0 -12.66)"/><path class="cls-5" d="M760.2,334.4c-.69-1.56,1.72-13.69,5.26-23.09,1.71-4.55,6-10.63,9.12-12.2a5.51,5.51,0,0,1,3.8,0,20.11,20.11,0,0,1,3.33,2c-10.13,3.83-18.94,29.24-18.3,31.91a.77.77,0,0,0-.07-.19Z" transform="translate(0 -12.66)"/><path class="cls-10" d="M765.43,353.83l-.57.09c-2.57.43-5-1.76-5.31-4.86l-.42-3.65c-.35-3.11,1.45-6,4-6.43l.57-.1c2.57-.43,4.95,1.76,5.31,4.87l.42,3.64C769.8,350.5,768,353.4,765.43,353.83Z" transform="translate(0 -12.66)"/><path class="cls-6" d="M998.65,722.69v.63c0,1-.48,1.84-1.07,1.84H49.29c-.59,0-1.08-.83-1.08-1.84v-.63c0-1,.49-1.83,1.08-1.83H997.58C998.17,720.86,998.65,721.69,998.65,722.69Z" transform="translate(0 -12.66)"/></svg>