<svg id="Layer_1" data-name="Layer 1" xmlns="http://www.w3.org/2000/svg" viewBox="0 0 1556.73 440.32"><defs><style>.cls-1{fill:#137aa5;}</style></defs><path class="cls-1" d="M1639.35,273.49c0,5.86-.17,11.12,0,16.37.51,13.19,1.18,26.37,1.82,39.56.1,2,.71,4.05.45,6-.3,2.23-.73,5.6-2.13,6.25a8.21,8.21,0,0,1-7.07-.93c-7.66-5.86-14.94-12.24-22.38-18.4-18.47-15.32-36.88-30.7-55.51-45.82a14.59,14.59,0,0,0-8.4-2.9c-20-.25-39.93,0-59.89-.27a11.91,11.91,0,0,1-7.26-3c-8.83-8.13-17.36-16.59-26-24.95-4.51-4.38-8.14-5-13.9-2.17s-11.6,6-17.44,9c-5,2.49-8.6,1.63-10.89-2.39-2.17-3.82-.77-7.77,3.94-10.43,11-6.21,22.09-12.22,33-18.54,4.28-2.48,8-2,11.62.88,3.16,2.53,6.71,4.81,9.17,7.93,6.69,8.49,16,10.56,25.78,10.73,19,.34,38.07.61,57.07-.12,8.7-.34,15,2.39,21.23,8,9.44,8.56,19.49,16.46,29.3,24.61a24.6,24.6,0,0,0,3.3,1.78c0-3,.08-5.42,0-7.79-.24-6.06-.68-12.11-.78-18.17s2.15-8.2,8.12-8.22c11.69,0,23.39,0,35.09,0,11.4,0,15.67-4.19,15.68-15.4q0-56.61,0-113.23c0-10.26-4.17-14.37-14.44-14.37h-319.1c-9.9,0-14.12,4.21-14.15,14.19,0,12.63,0,25.27,0,37.9,0,5.78-2.08,7.75-8,7.8-5.46.05-10.92,0-16.38,0-6.15,0-8.59-1.75-8.59-7.83,0-16.82-.28-33.71,1.08-50.45,1.31-16,20.18-32.75,36.15-33.65,8.7-.49,17.42-.85,26.13-.86q151.83-.09,303.66-.11c23.43,0,39.91,14.36,44.84,31.9a54,54,0,0,1,1.77,14.29q.21,58.25.06,116.5c0,26.7-19.73,46.26-46.36,46.27Z" transform="translate(-139.69 -63.63)"/><path class="cls-1" d="M1388.65,273.68c1.59,3.42,3,6.47,4.76,10.25,4.46-.38,8,1.64,7.72,7.9,0,.56,1.2,1.7,1.84,1.7,6.14,0,7.68,3.68,7.32,8.84,8.7,2.8,10.48,4.73,9.27,9.95-.88,3.83-6.92,7.63-11,7s-4.89-3.12-3.82-10.66c-9.9-.69-9.9-.69-10.07-9-2.77-.45-6.42,0-8-1.6s-1.05-5.24-1.53-8.53c-2.57-.55-7.58,2.63-9-3-1.33-5.42,1.78-9.14,7.23-12.66-2.77-.17-4.37-.35-6-.36-15.13,0-30.26-.05-45.39,0a37.84,37.84,0,0,0-8.28,1c-4.78,1.12-7.29,5.35-7.32,12.13-.06,13.88,0,27.76,0,41.64q0,32.76,0,65.51c0,10.28,3.88,14.22,14,14.22h33.23c9,0,10.9,1.79,10.74,11-.12,6.8-.6,13.59-1,21.78,6.35-4.89,11.73-9,17.06-13.15,7.25-5.65,14.33-11.52,21.74-16.94a14,14,0,0,1,7.67-2.58q129.85-.19,259.7,0c2.34,0,5.8,1.05,6.69,2.71s-.08,5.19-1.39,7.11c-9.26,13.65-22,21.17-38.82,21.16q-106.46,0-212.91-.09a15.89,15.89,0,0,0-10.68,3.56q-24.46,19.56-49.07,38.94c-8.67,6.86-17.28,13.83-26.14,20.44-1.82,1.35-5.33,2.51-6.84,1.64s-2.64-4.39-2.55-6.69c.6-15.23,1.62-30.44,2.39-45.65.2-3.84,0-7.7,0-12.16H1327c-18.72,0-36.93-13.4-42-31.39-1.25-4.41-1.32-9.25-1.33-13.89-.11-35.57.14-71.13-.13-106.69-.17-22.67,14.24-37.71,32.47-43.33,4.64-1.43,9.86-1.27,14.82-1.35,10.76-.19,21.53-.06,32.29-.09,9.22,0,16.86-3.6,24.46-8.9s16.49-9.22,25.13-13c4.65-2,9.14-.39,13.93,3.27-5.79,3.55-11.51,6.83-17,10.48-10.24,6.83-9.51,20.8,1.6,25.55,3.22,1.38,7.7,1.11,11.2.15,4.9-1.34,9.48-3.92,14.08-6.19,4.32-2.12,8.17-1.7,11.56,1.64q12.68,12.47,25.19,25.09c2.57,2.6,3.65,5.73.53,8.6-2.86,2.66-5.76,1.56-8.28-.85-2.26-2.15-4.41-4.42-6.69-6.54a40.16,40.16,0,0,0-3.46-2.61l-1.29,1a26,26,0,0,0,2.43,4.13c2.34,2.7,5,5.13,7.32,7.85,2.19,2.55,2.14,5.79-.66,7.26a8.59,8.59,0,0,1-7.39-.37c-3.32-2.19-5.78-5.64-8.76-8.38a24.12,24.12,0,0,0-4.28-2.59l-1.07,1.32c1.76,2,3.5,4.07,5.3,6.06,1.37,1.49,2.94,2.82,4.22,4.38,2.08,2.54,2.89,5.32.12,7.89s-5.51,1.9-8-.29-4.86-4.84-7.33-7.21c-1.3-1.25-2.72-2.38-4.08-3.56l-1.12.72a10.77,10.77,0,0,0,1.26,3.15c1.9,2.27,4.45,4.1,5.91,6.59a10.43,10.43,0,0,1,1.35,7.05c-.3,1.25-3.91,3-5.14,2.46-2.28-1-5.42-3.4-5.54-5.37-.42-7-3.81-11.14-9.3-15.15-4.69-3.43-7.89-8.85-12-13.2-3.14-3.37-6.18-7.14-10-9.4C1395.08,272.17,1391.32,273.53,1388.65,273.68Z" transform="translate(-139.69 -63.63)"/><path class="cls-1" d="M465.7,225.76v15.93c0,15.05-8.7,24.26-23.78,25.16-.47,0-.94,0-1.4,0-10.15.18-10.63-.28-10.63-10.22,0-8.73-.16-17.47.07-26.2.09-3.69-1.12-4.8-4.81-4.76-17,.17-34,.09-51,.06-10.39,0-20.94-10.19-21-20.51q-.15-36,0-72.05c0-9.89,9.4-19.83,19.24-19.91q37-.32,73.92,0c9.19.07,19.32,10.9,19.35,20.16.07,17.15.12,34.31-.05,51.46,0,3.76.92,5.13,4.92,5.12q51.22-.21,102.45,0c3.49,0,5-.76,4.9-4.65-.24-11.83-.08-23.67-.08-36-1.78-.11-3.27-.28-4.76-.28-10.29,0-20.59.22-30.87-.12-4.49-.15-5.58,1.45-5.39,5.59.29,6.38,0,12.79.09,19.18.05,3.75-1.63,5.39-5.37,5.35q-12.39-.12-24.79,0c-3.9,0-5.72-1.54-5.69-5.56.09-13.56-.07-27.13.07-40.7.1-8.65,10.39-19.4,19.07-19.47q37.2-.33,74.39,0c9.56.09,19,10.14,19,19.63.07,24.17-.26,48.35.17,72.51.16,8.73-11.8,20.42-20.89,20.38-40.07-.14-80.15-.06-120.23-.06ZM389,149c0,13.21-.08,25.66.14,38.1,0,1,2,2.66,3.16,2.68,11.37.2,22.75.1,34.13.14,2.22,0,3.49-.59,3.48-3.13-.06-11.54.05-23.07-.15-34.6,0-1.08-1.8-3-2.79-3.06C414.52,149,402.08,149,389,149Z" transform="translate(-139.69 -63.63)"/><path class="cls-1" d="M767.52,225.76c-23.69,0-47.39-.25-71.09.12-9.46.15-21.8-11.88-21.55-21.25.64-23.68.17-47.39.24-71.08,0-10.73,9.45-20.27,20.28-20.33q36-.18,72,0c10,.05,20.2,10.67,20.22,20.74,0,17,.12,34-.06,51,0,3.83,1,5.18,5,5.07,9-.26,18.09-.29,27.12,0,4.21.14,5.24-1.31,5.22-5.34-.13-37.73-.08-75.45-.07-113.18,0-6.72,1.07-7.56,7.87-7.85,12.35-.51,22,3.33,26.77,15.63a16.77,16.77,0,0,1,1.14,5.85q.09,59.63,0,119.26c0,10.42-11.87,21.39-21.56,21.37C815.23,225.72,791.37,225.76,767.52,225.76ZM710.92,149c0,13.14-.07,25.58.14,38,0,1,2,2.73,3.08,2.75q17.29.3,34.6,0c1,0,2.92-1.86,2.94-2.88q.32-17.53,0-35.07a3.9,3.9,0,0,0-2.68-2.69C736.56,149,724.11,149,710.92,149Z" transform="translate(-139.69 -63.63)"/><path class="cls-1" d="M234.17,225.76H166.33c-15.32,0-25-8.15-25.29-23.27-.42-23.83.1-47.69.64-71.52.2-8.77,9.44-17.6,18.15-17.67,24.79-.22,49.59-.08,74.39-.08,8.47,0,19.58,11.44,19.25,20.18-.63,17,0,34-.28,51-.07,4.63,1.42,5.81,5.84,5.65,9.19-.31,18.41-.33,27.59,0,4.66.17,5.72-1.51,5.7-5.89-.15-37.27-.08-74.54-.08-111.82,0-8,.66-8.49,8.89-8.66,10.36-.21,19.06,2.63,24.07,12.45a16.31,16.31,0,0,1,2,7c.12,40.7-.11,81.41.26,122.11.08,8.77-11.93,20.74-21.2,20.61C282.21,225.54,258.19,225.76,234.17,225.76ZM217.47,149c-13.15,0-25.59-.08-38,.13-1,0-2.74,2-2.76,3q-.3,17.31,0,34.61c0,1.06,1.85,3,2.86,3q17.53.32,35.08,0a3.92,3.92,0,0,0,2.72-2.66C217.53,174.69,217.47,162.24,217.47,149Z" transform="translate(-139.69 -63.63)"/><path class="cls-1" d="M991.68,149c0,8.27,0,15.88,0,23.48,0,5.56-.93,6.47-6.56,6.49-8,0-15.91-.06-23.87,0-3.73,0-5.4-1.59-5.38-5.35.06-14-.1-28.07.1-42.11.12-8.4,10.08-18.2,18.95-18.27q37.2-.33,74.4,0c8.72.07,18.07,8.91,18.17,17.63.28,26.32.33,52.65-.22,79-.13,6-5.6,9.94-10.65,12.66a25.39,25.39,0,0,1-11.41,3.08c-46.33.2-92.65,0-139,.25-9.89.06-22.58-11.58-22.49-22.56.31-38,.12-76.11.12-114.17,0-15.65,8.36-24.52,24-25.4,1.4-.08,2.81,0,4.21,0,6.53.05,7.64,1.14,7.64,7.57,0,37.59.09,75.18-.1,112.77,0,4.75,1.29,6,6,6q50.76-.3,101.53,0c4.13,0,5.75-.93,5.61-5.4-.33-10.6,0-21.21-.23-31.82,0-1.28-1.69-3.6-2.63-3.62C1017.43,149,1005,149,991.68,149Z" transform="translate(-139.69 -63.63)"/><path class="cls-1" d="M599.43,472.25c-8,8.64-17.73,7.34-27,4.66-7.22-2.09-9.36-9-9.48-15.76-.32-17.92-.09-35.85-.2-53.78,0-3,1.07-4.16,4.11-4.12,11.2.18,9.42-1,9.49,8.9.11,13.41.28,26.82,0,40.22-.29,12.16,6.55,12.62,15.56,10.46,4-1,4.44-4.78,4.6-8.33.24-5.34.24-5.13,8-5.34,4.17-.11,5.44,1.42,5.39,5.43-.09,6.8,1.67,9.42,5.61,9.57s6.09-3,6.24-9.71c.06-2.75-.25-5.21,3.9-5.29,8.6-.16,8.62-.36,9.23,4.78.2,1.7-.28,3.77.54,5,1.27,2,3.36,4.77,5.15,4.8s4.4-2.61,5.19-4.65c1-2.46.58-5.53.43-8.32-.19-3.5,1.29-4.91,4.68-4.54a3.68,3.68,0,0,0,.47,0c9.67,0,8.11-.39,8.21,7.83,0,3.91.47,7.65,5,9,6,1.82,11.6.55,14.21-3.65,2.46-4,4.28-8.3,6.58-12.37,3.94-7,9.18-12.09,18-12.08,11.43,0,20.1,8.61,20.78,20.83.46,8.19-.91,15.86-8.51,20.4-8.77,5.24-17.92,4-26.85,0a44.71,44.71,0,0,1-4.68-2.76c-11.52,6.83-22.65,8-33.68-1.44-3,3.87-6.27,8.3-11.87,7.26-4.59-.85-8.93-3.12-13.87-4.95C617,483,606.41,480.69,599.43,472.25Zm103.73-7.7.06-.31H706c3.43,0,6.31-1,7.13-4.66s-.77-6.74-4-8.65c-4.61-2.7-11.18-1.39-14.89,2.8-4.82,5.45-4.29,7.55,2.59,9.59A64.13,64.13,0,0,0,703.16,464.55Z" transform="translate(-139.69 -63.63)"/><path class="cls-1" d="M292,461.2c7.78-1.74,9.46-3.72,9.5-11.08.08-13.88.17-27.77-.06-41.65-.06-4.14,1.26-5.78,5.35-5.2a12.78,12.78,0,0,0,3.27,0c3.81-.46,5.18,1,5.13,5-.19,14.82,0,29.63-.09,44.45,0,9.75,2.1,11,12.17,11.1,7.15.09,14.31,0,21.46,0,10.37-.06,13.12-1.72,12.77-12.17-.16-4.94-.81-9.85-1.31-15.55,3.88,0,7.26-.19,10.59.13a3.77,3.77,0,0,1,2.52,2.55c1.14,9.11,2.46,18.3-.33,27.31-2.38,7.71-8.69,12.3-16.86,12.39-12.86.13-25.72.08-38.58,0-5.86,0-9-2.14-14.09-9.08-10.51,10.12-24.52,8.11-37.26,10.59-.78.15-2.11-1.19-2.74-2.14-.43-.65-.12-1.81-.13-2.75-.1-10-.11-10.25,9.66-10.75,4.31-.22,4.91-2,4.32-5.54-2-12.26-3.92-24.55-6.13-36.78-.65-3.58.22-4.76,3.87-4.81,9.79-.14,10-.28,11.56,9.31s2.78,19.06,4.18,28.59C291,457.07,291.53,459,292,461.2Z" transform="translate(-139.69 -63.63)"/><path class="cls-1" d="M907.1,473.12c-8.11,7.78-18,4.84-27.3,5.29-5.54.27-11.14-.35-16.67,0-11.65.74-19.15-5.15-19.42-16.85-.41-18.22-.12-36.46-.18-54.69,0-2.6,1.05-3.62,3.62-3.6,12.1.09,9.84-1.08,10,9.35.13,13.24-.11,26.49.08,39.73.14,10.06,1.39,11.27,12.31,11.41,7,.09,14-.21,21,.09,6.56.27,11.48-1.61,14.14-8.07a78.15,78.15,0,0,1,4.84-9.58c5.46-9.37,13.85-13.21,23.13-10.76,8.19,2.17,14.61,10.85,15.13,20.44.45,8.2-.94,15.85-8.55,20.38-8.77,5.22-17.92,4-26.84-.07C910.64,475.43,909.11,474.31,907.1,473.12ZM927,464.9c7.15-.55,10.12-2.45,10.08-7-.05-5-4.71-8.74-10.41-8.35A12.42,12.42,0,0,0,915.36,458c-.4,1,.59,3.48,1.53,3.88A88.75,88.75,0,0,0,927,464.9Z" transform="translate(-139.69 -63.63)"/><path class="cls-1" d="M1030.55,471.88c-6.79,9.47-17.73,10.78-27.08.19-4.82,7.48-12.5,6.27-19.72,6.43-4.18.09-8.36-.05-12.54,0-10,.16-16.85-6.11-17.07-17-.38-18.23-.11-36.47-.18-54.7,0-2.62,1.11-3.59,3.66-3.57,12,.09,9.81-1.09,9.91,9.38.13,13.24-.11,26.49.08,39.74.15,9.93,1.31,11.26,12.35,11.35a91.61,91.61,0,0,0,12.95-.44c6.26-.84,7.57-2.61,7.85-8.78.24-5.36.25-5.09,8-5.4,4.58-.19,5.81,1.69,5.4,5.76-.13,1.38-.41,3.17.27,4.12,1.42,1.94,3.18,4.27,5.28,4.94,2.93.94,4.86-1.33,5.55-4.27.32-1.36.5-2.75.8-4.11.44-2,.59-5.57,1.45-5.75,3.26-.71,6.76-.43,10.14-.21.51,0,1.14,1.72,1.3,2.71.36,2.14.23,4.38.7,6.49.64,2.88,2,5.32,5.52,5.33s4.78-2.54,4.87-5.21a56.17,56.17,0,0,0-.88-12.49c-.62-3.23.52-3.75,3.25-3.87,9.9-.46,10-.53,10.62,9.36a57.1,57.1,0,0,1-.25,11.62c-1,6.88-4.29,12.48-11.23,14.79-7.1,2.38-13.84,1.61-19.44-4A14,14,0,0,1,1030.55,471.88Z" transform="translate(-139.69 -63.63)"/><path class="cls-1" d="M198.23,477.15c-3.75,5.46-6.29,11.05-10.46,14.8-7,6.28-16.12,6.07-24.88,4.82-20.4-2.92-24.52-18-22.87-35.71a3.74,3.74,0,0,1,.12-.45c1.39-7.75,3.56-9.29,11.39-7.52.95.22,2.05,2.27,2.1,3.51.11,3.24-.51,6.5-.49,9.76,0,9.4,4.13,14.16,13.38,15.38a35.12,35.12,0,0,0,9.33,0c8.93-1.23,12.84-5.87,12.49-14.93a106.61,106.61,0,0,0-1.6-12c-.74-4.71-.12-5.51,4.6-5.57,7.36-.09,7.47-.12,9,6.86,1,4.46,2.92,7.42,8,7.38,10-.1,20.13.34,30.15-.2,6.25-.35,7.95-2.76,7.86-9.17-.08-5.72-.73-11.44-1.19-18.05,3.8,0,7.3-.19,10.76.13a3.75,3.75,0,0,1,2.34,2.77c.08,8.81.88,17.78-.49,26.39-1.33,8.4-8.44,13-17.06,13.13q-18.17.21-36.34-.06A27.2,27.2,0,0,1,198.23,477.15Z" transform="translate(-139.69 -63.63)"/><path class="cls-1" d="M821.71,436.07a92,92,0,0,1,10.21.13c1.06.13,2.77,1.79,2.78,2.78.14,8.8.94,17.76-.41,26.36-1.32,8.44-8.4,12.92-17,13.15-2,.05-4.06-.1-6.08,0-7.49.45-14-1.11-17.05-7.46-5.11,1.79-9.66,4.45-14.4,4.85-13.24,1.12-21.5-9.69-18-22.59,1.83-6.83,6.37-11.33,12.41-14.41,4.29-2.18,8.74-4.07,13.22-5.85,3.08-1.23,5.08-2.89,4.57-6.53-.49-3.47,1.1-4.61,4.55-4.53,10.39.25,8.94-.93,9,9,.07,8.1,0,16.21,0,24.31.07,6,2,8.07,7.1,8.32,6.71.32,10-2,10.13-8S822.14,443.2,821.71,436.07Zm-31.06,7.18c-5.2,2.57-10.27,4.59-14.74,7.52a7.9,7.9,0,0,0-2.83,6.56c.27,1.56,3.41,3.41,5.5,3.76C789,462.85,794.52,455.25,790.65,443.25Z" transform="translate(-139.69 -63.63)"/><path class="cls-1" d="M545.72,479.45h-10c-14.53,0-22.26-8.07-21.6-22.49.58-12.64,10.93-22.38,23.19-21.89a16.36,16.36,0,0,1,14.25,9.25c8.08,15.42,8.48,31.35.72,47-3.56,7.19-10.49,10.05-18.18,10.44-4.77.24-9.59-.55-14.4-.75-3-.12-4.2-1.6-4-4.46,0-.62,0-1.25,0-1.87-.07-8.1-.09-7.78,7.83-7.31a74,74,0,0,0,15.73-.9C542.81,485.92,544.93,483.07,545.72,479.45Zm-8.63-15.27v-.11a35.84,35.84,0,0,0,6.48-.12,3.7,3.7,0,0,0,2.4-2.54c.46-7.7-9.13-14.15-16.11-11-3.47,1.58-5.4,4.4-4.91,8.14s3.49,5.26,7,5.57C533.67,464.3,535.38,464.18,537.09,464.18Z" transform="translate(-139.69 -63.63)"/><path class="cls-1" d="M480.84,458c.05,13.54-7.82,21.39-21.48,21.42s-21.94-7.83-22-21c0-13.66,9.06-23.72,21.59-23.88S480.79,444.34,480.84,458Zm-21.79,6.28c6.71,0,10-2.06,10.05-6.34.06-4.69-4.22-8.37-9.81-8.43s-9.86,3.43-10,8.21C449.1,462.07,452.43,464.29,459.05,464.31Z" transform="translate(-139.69 -63.63)"/><path class="cls-1" d="M493,438.86c4.26,0,7.82-.14,11.35.09A3.47,3.47,0,0,1,506.8,441c2.88,14.88,5,29.87.76,44.8-3.54,12.46-17.51,19.71-29.79,15.88-.87-.27-2.09-1.31-2.13-2.06a66,66,0,0,1,.09-11.16c.08-.7,2.72-1.7,4.08-1.57,11.71,1.1,16.72-2.94,16.47-14.82-.19-9-1.56-17.9-2.43-26.85C493.67,443.39,493.35,441.58,493,438.86Z" transform="translate(-139.69 -63.63)"/><path class="cls-1" d="M1504.79,352.18c.09,9.32-7.51,16.62-17.47,16.78s-18.45-7.24-18.56-16.33,7.83-16.57,17.65-16.68C1496.88,335.84,1504.71,342.75,1504.79,352.18Z" transform="translate(-139.69 -63.63)"/><path class="cls-1" d="M1433.15,336c9.94,0,18,7.38,18.06,16.43s-8.2,16.52-18,16.59c-10.23.06-18.19-7.31-18.1-16.76C1415.21,342.93,1423,335.93,1433.15,336Z" transform="translate(-139.69 -63.63)"/><path class="cls-1" d="M1540.17,336c10,.06,17.82,7.36,17.77,16.6,0,9.06-8.17,16.44-18.06,16.42-10.22,0-18-7.4-17.89-16.94C1522.1,342.83,1530,335.89,1540.17,336Z" transform="translate(-139.69 -63.63)"/><path class="cls-1" d="M395.73,448.4c0,8.42-.12,16.85,0,25.27.07,3.5-.84,5-4.72,4.93-10.16-.3-8.87.83-8.9-8.66-.05-15.44.1-30.88-.1-46.32-.05-4,1-5.56,5.25-5.4,9.22.37,8.38-1,8.42,8.19C395.76,433.74,395.73,441.07,395.73,448.4Z" transform="translate(-139.69 -63.63)"/><path class="cls-1" d="M513.91,263.18c-4.63.13-9.69.18-11.58-4.89-2.2-5.89-2.51-12.24.83-18a6.74,6.74,0,0,1,4.56-2.83c4.27-.41,8.78-.89,12.86.08a9.72,9.72,0,0,1,6.07,5.95,31.89,31.89,0,0,1,.19,12.84C525.9,261.83,522.68,263.19,513.91,263.18Z" transform="translate(-139.69 -63.63)"/><path class="cls-1" d="M544.5,236.81c4.62-.12,9.71-.23,11.64,4.82,2.24,5.88,2.47,12.2-.73,18a5.46,5.46,0,0,1-3.66,2.58c-5,.3-10.1.14-15.16.07a4,4,0,0,1-1.66-.79c-4.38-2.55-4.73-9.62-3.36-17.79.83-4.92,4.17-6.81,10.13-6.91C542.64,236.79,543.57,236.8,544.5,236.81Z" transform="translate(-139.69 -63.63)"/><path class="cls-1" d="M574.15,236.81c4.58-.1,9.71-.4,11.79,4.56a21.13,21.13,0,0,1-.41,18c-.56,1.14-2,2.54-3.1,2.59-5.48.27-11.15.95-16.44-.1-4.69-.93-6.38-8.48-4.91-17,.86-5,3.95-7.73,9.33-8.06C571.66,236.75,572.91,236.81,574.15,236.81Z" transform="translate(-139.69 -63.63)"/><path class="cls-1" d="M968.58,263.19c-4.17.12-9.28.31-11.3-4.67a21,21,0,0,1,.56-18,5.45,5.45,0,0,1,3.58-2.69c5-.32,10.11-.2,15.16-.14a4.83,4.83,0,0,1,2.08,1c4.13,2.49,4.54,10.22,3,17.91-.95,4.82-4.22,6.57-10.33,6.63Z" transform="translate(-139.69 -63.63)"/><path class="cls-1" d="M1012.25,250.14c.13,4.61.3,9.71-4.7,11.71-5.85,2.34-12.17,2.49-18-.59a5.43,5.43,0,0,1-2.67-3.6c-.32-5-.22-10.11-.11-15.16a3.89,3.89,0,0,1,1.27-2.43c5.4-5.07,11.9-3.65,18.06-2.45,5.25,1,6.13,5.55,6.17,10.18C1012.26,248.58,1012.26,249.36,1012.25,250.14Z" transform="translate(-139.69 -63.63)"/><path class="cls-1" d="M1028.52,263.18c-4.63.13-9.67.12-11.5-5-2.1-5.91-2.53-12.27,1-18a7.55,7.55,0,0,1,5-2.94,57,57,0,0,1,12,0,7.22,7.22,0,0,1,6.72,6.75,45.27,45.27,0,0,1,0,12C1040.78,261.67,1037.46,263.19,1028.52,263.18Z" transform="translate(-139.69 -63.63)"/><path class="cls-1" d="M394.91,416.14c-2.28-.39-4.55-.83-6.84-1.15-2.9-.4-5.9-2.07-8.37,1.47-.57.81-3.41.73-4.72.09-.84-.41-1.23-2.66-1.08-4a7.91,7.91,0,0,1,8.25-7.22c3.38.05,6.74.79,10.11,1.18a38.08,38.08,0,0,0,5.52.47c2.43-.07,5.26-1.83,5.35,3,.08,4.12-1.06,6.25-5.4,6-.92-.06-1.85,0-2.78,0Z" transform="translate(-139.69 -63.63)"/><path class="cls-1" d="M628.34,438.81c-2,3.71-4.77,6.37-8.68,4.62-1.95-.88-4.09-3.81-4.12-5.83s2.1-5,4-5.83c3.8-1.65,6.86.44,8.2,3.62,2.77-1.41,5.22-3.1,7.94-3.87,1.25-.36,3.33.72,4.48,1.76,2.52,2.29,2.1,7-.5,9.16C636.49,445.14,632.83,444.09,628.34,438.81Z" transform="translate(-139.69 -63.63)"/><path class="cls-1" d="M227.4,488.22c5.26-4,8.73-4.57,11.32-1.46a6.26,6.26,0,0,1,.1,8.54c-2.51,3.12-6.47,2.59-11.36-1.29-5,3.86-8.88,4.39-11.38,1.33a6.24,6.24,0,0,1,0-8.54C218.71,483.64,222.24,484.16,227.4,488.22Z" transform="translate(-139.69 -63.63)"/><path class="cls-1" d="M177.43,437.75a7.05,7.05,0,0,1-7.16,7,6.92,6.92,0,0,1-7.09-7,7.17,7.17,0,0,1,7.06-7.2A7.58,7.58,0,0,1,177.43,437.75Z" transform="translate(-139.69 -63.63)"/><path class="cls-1" d="M827.11,431.63a7.15,7.15,0,0,1-6.93-7.32,6.9,6.9,0,0,1,7.19-6.92,7.12,7.12,0,0,1,7.06,7.17A7.61,7.61,0,0,1,827.11,431.63Z" transform="translate(-139.69 -63.63)"/><path class="cls-1" d="M373,424.25a7.62,7.62,0,0,1-7,7.38,7.17,7.17,0,0,1-7.23-7,6.89,6.89,0,0,1,6.88-7.23A7.1,7.1,0,0,1,373,424.25Z" transform="translate(-139.69 -63.63)"/><path class="cls-1" d="M628.2,430.86c-3-.08-5.3-1.83-5.55-5.8a6,6,0,0,1,6-6.73,6.25,6.25,0,0,1,6.5,6.34C635.13,428.26,632.68,430.75,628.2,430.86Z" transform="translate(-139.69 -63.63)"/></svg>