<svg xmlns="http://www.w3.org/2000/svg" xmlns:xlink="http://www.w3.org/1999/xlink" viewBox="0 0 798.85 990.45"><defs><style>.cls-1{mask:url(#mask);}.cls-2,.cls-4,.cls-6{mix-blend-mode:multiply;}.cls-2{fill:url(#linear-gradient);}.cls-3{mask:url(#mask-2);}.cls-4{fill:url(#linear-gradient-2);}.cls-5{mask:url(#mask-3);}.cls-6{fill:url(#linear-gradient-3);}.cls-7{fill:#eea886;}.cls-8{fill:#c72d2c;}.cls-9{fill:#212338;}.cls-10{fill:#2a2c48;}.cls-11{fill:#3e416b;}.cls-12{fill:#cfbfb7;}.cls-13{fill:#764937;}.cls-14{fill:#a77961;}.cls-15{fill:#ca8463;}.cls-16{fill:#de9e7e;}.cls-17{fill:#eedad3;}.cls-18{fill:#323657;}.cls-19{fill:#e73433;}.cls-20{fill:#434341;}.cls-21{fill:#d6995e;}.cls-22{fill:#817167;}.cls-23{fill:#6f6861;}.cls-24{fill:#918880;}.cls-25{fill:#bc8550;}.cls-26{fill:#767e28;}.cls-27{fill:#5c9e32;}.cls-28{fill:#4e8c32;}.cls-29{fill:#b1c265;}.cls-30{fill:#93a15c;}.cls-31{fill:#c8cb7f;}.cls-32{fill:#538430;}.cls-33{fill:#6d9f43;}.cls-34{fill:#4c8a33;}.cls-35{fill:#699c2f;}.cls-36{fill:#498c33;}.cls-37{fill:#62a23e;}.cls-38{fill:#5d9b3b;}.cls-39{fill:#325460;}.cls-40{fill:#28444d;}.cls-41{mask:url(#mask-4);}.cls-42{fill:url(#linear-gradient-4);}.cls-43{mask:url(#mask-5);}.cls-44{fill:url(#linear-gradient-5);}.cls-45{mask:url(#mask-6);}.cls-46{fill:url(#linear-gradient-6);}.cls-47{fill:#fff;}.cls-48{filter:url(#luminosity-noclip-6);}.cls-49{filter:url(#luminosity-noclip-5);}.cls-50{filter:url(#luminosity-noclip-4);}.cls-51{filter:url(#luminosity-noclip-3);}.cls-52{filter:url(#luminosity-noclip-2);}.cls-53{filter:url(#luminosity-noclip);}</style><filter id="luminosity-noclip" x="185.16" y="-8732" width="305.39" height="32766" filterUnits="userSpaceOnUse" color-interpolation-filters="sRGB"><feFlood flood-color="#fff" result="bg"/><feBlend in="SourceGraphic" in2="bg"/></filter><mask id="mask" x="185.16" y="-8732" width="305.39" height="32766" maskUnits="userSpaceOnUse"><g class="cls-53"/></mask><linearGradient id="linear-gradient" x1="305.97" y1="111.41" x2="867.84" y2="708.63" gradientUnits="userSpaceOnUse"><stop offset="0" stop-color="#fff"/><stop offset="0.15" stop-color="#d9d9d9"/><stop offset="1"/></linearGradient><filter id="luminosity-noclip-2" x="445.15" y="-8732" width="81.58" height="32766" filterUnits="userSpaceOnUse" color-interpolation-filters="sRGB"><feFlood flood-color="#fff" result="bg"/><feBlend in="SourceGraphic" in2="bg"/></filter><mask id="mask-2" x="445.15" y="-8732" width="81.58" height="32766" maskUnits="userSpaceOnUse"><g class="cls-52"/></mask><linearGradient id="linear-gradient-2" x1="313.04" y1="65.7" x2="874.92" y2="662.92" gradientUnits="userSpaceOnUse"><stop offset="0" stop-color="#fff"/><stop offset="1"/></linearGradient><filter id="luminosity-noclip-3" x="533.23" y="-8732" width="39.93" height="32766" filterUnits="userSpaceOnUse" color-interpolation-filters="sRGB"><feFlood flood-color="#fff" result="bg"/><feBlend in="SourceGraphic" in2="bg"/></filter><mask id="mask-3" x="533.23" y="-8732" width="39.93" height="32766" maskUnits="userSpaceOnUse"><g class="cls-51"/></mask><linearGradient id="linear-gradient-3" x1="307.12" y1="33.06" x2="869" y2="630.28" xlink:href="#linear-gradient-2"/><filter id="luminosity-noclip-4" x="185.16" y="12.48" width="305.39" height="262.16" filterUnits="userSpaceOnUse" color-interpolation-filters="sRGB"><feFlood flood-color="#fff" result="bg"/><feBlend in="SourceGraphic" in2="bg"/></filter><mask id="mask-4" x="33.44" y="0" width="305.39" height="262.16" maskUnits="userSpaceOnUse"><g class="cls-50"><g transform="translate(-151.72 -12.48)"><g class="cls-1"><path class="cls-2" d="M490.55,131a59.83,59.83,0,0,0-68.9-59.55A77.7,77.7,0,0,0,272,67.15c-1.16-.05-2.31-.09-3.48-.09a83.39,83.39,0,0,0-14.43,165.52,31.86,31.86,0,0,0,48.8,20.67,83.37,83.37,0,0,0,139.13-62c0-.39,0-.77,0-1.16A60.25,60.25,0,0,0,490.55,131Z"/></g></g></g></mask><linearGradient id="linear-gradient-4" x1="305.97" y1="111.41" x2="867.84" y2="708.63" gradientUnits="userSpaceOnUse"><stop offset="0" stop-color="#86caf1"/><stop offset="0.15" stop-color="#97d1f4"/><stop offset="1" stop-color="#fff"/></linearGradient><filter id="luminosity-noclip-5" x="445.15" y="208.69" width="81.58" height="81.58" filterUnits="userSpaceOnUse" color-interpolation-filters="sRGB"><feFlood flood-color="#fff" result="bg"/><feBlend in="SourceGraphic" in2="bg"/></filter><mask id="mask-5" x="293.43" y="196.21" width="81.58" height="81.58" maskUnits="userSpaceOnUse"><g class="cls-49"><g transform="translate(-151.72 -12.48)"><g class="cls-3"><path class="cls-4" d="M526.73,249.48a40.79,40.79,0,1,1-40.79-40.79A40.79,40.79,0,0,1,526.73,249.48Z"/></g></g></g></mask><linearGradient id="linear-gradient-5" x1="313.04" y1="65.7" x2="874.92" y2="662.92" gradientUnits="userSpaceOnUse"><stop offset="0" stop-color="#86caf1"/><stop offset="1" stop-color="#fff"/></linearGradient><filter id="luminosity-noclip-6" x="533.23" y="274.64" width="39.93" height="39.93" filterUnits="userSpaceOnUse" color-interpolation-filters="sRGB"><feFlood flood-color="#fff" result="bg"/><feBlend in="SourceGraphic" in2="bg"/></filter><mask id="mask-6" x="381.5" y="262.16" width="39.93" height="39.93" maskUnits="userSpaceOnUse"><g class="cls-48"><g transform="translate(-151.72 -12.48)"><g class="cls-5"><circle class="cls-6" cx="553.19" cy="294.61" r="19.97"/></g></g></g></mask><linearGradient id="linear-gradient-6" x1="155.4" y1="20.58" x2="717.28" y2="617.8" xlink:href="#linear-gradient-5"/></defs><g id="Layer_1" data-name="Layer 1"><path class="cls-7" d="M538.27,661.37c-.63-2.6-.3-6.62,7.83-11.17s26.28-17.67,32.51-18,15.71,2,18.23,1.91,7.39,16.73,7.39,16.73Z" transform="translate(-151.72 -12.48)"/><polygon class="cls-8" points="603.72 483.48 549.36 590.25 437.83 618.9 448.63 647.12 568.49 638.62 627.31 540.7 603.72 483.48"/><path class="cls-9" d="M425.07,929.31S400.13,939.8,389,943.44,337,943,332.51,946.25s-4.72,15.6,1.84,17.76,55.29,13.36,72.29,11.76,46.89,9.09,54,7.71,7.76-38.75,6.25-47.36S425.07,929.31,425.07,929.31Z" transform="translate(-151.72 -12.48)"/><path class="cls-10" d="M430.81,914.33l-5.74,15s30.06,10,41.85,6.81l3.94-15.27Z" transform="translate(-151.72 -12.48)"/><path class="cls-10" d="M492.31,942.63s-23.53,13.37-34.16,18.3-51.63,5.7-55.74,9.48-2.85,16.05,3.92,17.42,56.49,6.72,73.18,3.12,47.64,3.47,54.56,1.25,3.12-39.39.6-47.77S492.31,942.63,492.31,942.63Z" transform="translate(-151.72 -12.48)"/><path class="cls-11" d="M495.82,927.06l-3.51,15.57s31,6.35,42.36,1.8l2.11-15.62Z" transform="translate(-151.72 -12.48)"/><path class="cls-9" d="M731.61,646.9s-107.27.88-120.42,2.62c-14.25,1.88-68.16,2.44-74.9,12C468.27,757.72,422,916.4,422,916.4l53.76,9.86s52-93.92,73.76-142.71c19.56-43.8,36.29-55.06,77.35-54.09S799.21,722,874.92,713.25Z" transform="translate(-151.72 -12.48)"/><path class="cls-12" d="M708.42,427.49s-10.52,46.16-7.95,71.61,43.19,89.23,45.12,103.4S736.41,646,736.41,646L877,711a883.77,883.77,0,0,0-6-89c-5.78-48.31-24-86.53-30.35-113.83C818.89,415,739.36,402.09,739.36,402.09Z" transform="translate(-151.72 -12.48)"/><path class="cls-10" d="M736.88,644.69s-110.47.88-123.62,2.61c-14.26,1.88-71.33,2.79-76.81,13.1-39,73.36-47.73,269.21-47.73,269.21l50.15,5.65s24.63-99.4,32.36-146.74,17.39-54.22,58.45-53.25S831.56,779.06,877,711Z" transform="translate(-151.72 -12.48)"/><path class="cls-7" d="M602.11,353.3s1.31,28.3,9,28.2c6.37-.09,8.72,27.05,9.44,31.28s12.11.78,15.53,1.72,26,24.35,34.61,20.27,37.69-38.9,41.45-55.3-16.25-68.3-34.82-84.1S600,303.73,602.11,353.3Z" transform="translate(-151.72 -12.48)"/><path class="cls-7" d="M684.87,412.18s1.32,2.27,3.31,5.81c1.47,2.61,3.29,5.91,5.21,9.5,5.2,9.74,11.1,21.62,12.42,27.69,2.47,11.34,28.28-52.26,28.28-52.26a559.38,559.38,0,0,1-33.51-71.72C685.75,292,684.87,412.18,684.87,412.18Z" transform="translate(-151.72 -12.48)"/><path class="cls-13" d="M602.59,359.32s-25.64-16-14.54-46,68.57-23.59,73.7-25.11,31-14.84,45.24,37,9.67,44.49,9.67,44.49-17.23-18-26.36-15.09c-9.9,3.19-25.44,9.86-25.44,9.86s-4.48-24.56-18-20.31S611.86,347.73,602.59,359.32Z" transform="translate(-151.72 -12.48)"/><path class="cls-7" d="M670.53,345.44c-.61-3.37-4.34-17.2,10-16.35s11.21,33,9.62,34.32S675.67,373.81,670.53,345.44Z" transform="translate(-151.72 -12.48)"/><path class="cls-14" d="M688.18,418c1.47,2.61,3.29,5.91,5.21,9.5,9.93-17.77,15.65-37,17.29-42.91C707.13,394.8,688.18,418,688.18,418Z" transform="translate(-151.72 -12.48)"/><path class="cls-15" d="M678.61,421.94s.18-9.43.58-12.32-5.73-.94-6.86,2.43S678.61,421.94,678.61,421.94Z" transform="translate(-151.72 -12.48)"/><path class="cls-16" d="M633.54,416.78s-1,4.13-.51,6.13c0,0,1.11,3.6,1.75,6.2a17.24,17.24,0,0,1,.4,2c.22,2,.09,6.44,2,11.1s11.31,24.87,11.31,24.87l13.3-3.93,10.46-3.54s8.23-31.93,7-36.46a11.29,11.29,0,0,0-.42-1.28c-1.42-3.73-4-5.92-5-7.8-.36-.68-4.39-7.27-6.67-7.6-3.17-.46-5.56.51-7,2.15,0,0-6.25-.62-9.77,1.72,0,0-5.75-.76-9.29,3.4C641,413.77,635.12,413.65,633.54,416.78Z" transform="translate(-151.72 -12.48)"/><path class="cls-17" d="M731.23,397.74S715,435.65,701.08,448.49L707.63,471l31.73-69Z" transform="translate(-151.72 -12.48)"/><path class="cls-18" d="M736.88,644.69s2-5.42,3.56-10.74,43.22,16.62,43.22,16.62l-10,11.61Z" transform="translate(-151.72 -12.48)"/><path class="cls-19" d="M712.61,516.4c4,8.13,7.76,16.39,11.36,24.71h0c7.92,18.3,15,36.89,21.17,55.09,2.21,6.48,4.32,12.93,6.33,19.28,23.94,75.78,33.46,140,33.46,140s89.51-23.82,102.88-35.62c0,0-21.82-317-148.45-317.8h0C738.56,403.28,691.75,473.69,712.61,516.4Z" transform="translate(-151.72 -12.48)"/><path class="cls-8" d="M745.14,596.2c2.21,6.48,4.32,12.93,6.33,19.28,19.71-31.17,54.46-106.13,55-107.29Z" transform="translate(-151.72 -12.48)"/><path class="cls-19" d="M676.82,454.26l-34,11.28,31.33,165a19.67,19.67,0,0,0,33.89,8.81c29.25-32.8,75.61-87.49,95.89-126.12,30.76-58.59-20.58-79-32.9-64.22s-66.71,114.3-66.71,114.3Z" transform="translate(-151.72 -12.48)"/><path class="cls-20" d="M934.24,374.56,881.65,528.8a14,14,0,0,0-.72,3.63L868.32,735.24l-219.91,4.9L584.34,973.4A24.49,24.49,0,0,0,587.88,994c2.79,4,6.78,7.45,12.35,8.13,13.94,1.7,296.25,0,296.25,0V990.5A10.63,10.63,0,0,0,885.74,980H621.81a14.31,14.31,0,0,1-11.21-5.27,9.24,9.24,0,0,1-2.24-7.21C609.52,960.06,665.87,770,665.87,770l212.63-3.76a18.13,18.13,0,0,0,18-17.18l9.24-218.22a17.22,17.22,0,0,1,.67-4.1l43-147.46s4.5-10.28-3.78-11.28S935.16,371.87,934.24,374.56Z" transform="translate(-151.72 -12.48)"/><path class="cls-21" d="M533.23,599.86v8H151.72v-8c0-7.46,5-13.51,11.2-13.51H522C528.21,586.35,533.23,592.4,533.23,599.86Z" transform="translate(-151.72 -12.48)"/><path class="cls-22" d="M21.62,967.19h104a11.32,11.32,0,0,1,11.32,11.32v7.12a0,0,0,0,1,0,0H21.62a0,0,0,0,1,0,0V967.19A0,0,0,0,1,21.62,967.19Z"/><rect class="cls-22" x="28.94" y="595.38" width="15.24" height="390.26"/><rect class="cls-22" x="59.55" y="595.38" width="15.24" height="390.26"/><rect class="cls-23" x="173.94" y="277.79" width="12.2" height="270.37"/><path class="cls-24" d="M312.64,586.35H245.55v-4.07h67.09c3.5,0,6-.83,7.48-2.47a6.6,6.6,0,0,0,1.49-4.66V488.21h4.06V574.8a10.65,10.65,0,0,1-2.46,7.66C320.94,585,317.38,586.35,312.64,586.35Z" transform="translate(-151.72 -12.48)"/><path class="cls-23" d="M181.53,566.75h69a6.54,6.54,0,0,1,6.54,6.54v.58a0,0,0,0,1,0,0H181.53a0,0,0,0,1,0,0v-7.12A0,0,0,0,1,181.53,566.75Z"/><path class="cls-25" d="M371.35,607.86H151.72v-8c0-7.46,5.16-13.51,11.53-13.51H337Z" transform="translate(-151.72 -12.48)"/><path class="cls-26" d="M173.94,508.56S195,511.72,225.73,528,201.65,533,173.94,508.56Z" transform="translate(-151.72 -12.48)"/><path class="cls-27" d="M229.89,530.41s-15.29-29.13-39-42.44c0,0,6.9,20.23,32,41.93S229.89,530.41,229.89,530.41Z" transform="translate(-151.72 -12.48)"/><path class="cls-28" d="M242.09,510.48s15.79-19.29,22.1-28.05-13.25,41-14.87,46.28S241,538.54,242.09,510.48Z" transform="translate(-151.72 -12.48)"/><path class="cls-29" d="M227,540.29c-7-10.52-11.93-57.86-11.93-57.86,12.28,10.17,23.85,55.9,23.85,55.9S234,550.81,227,540.29Z" transform="translate(-151.72 -12.48)"/><path class="cls-30" d="M228.6,535.52c-2.1-4.47.71-62.51,2.38-57.25s11.23,27,11.23,27C243.64,518.45,230.71,540,228.6,535.52Z" transform="translate(-151.72 -12.48)"/><path class="cls-31" d="M244.76,522.66c3.72-6.77,40.47-43,40.47-43-.35,11.22-23.15,37.88-23.15,37.88S241,529.42,244.76,522.66Z" transform="translate(-151.72 -12.48)"/><path class="cls-27" d="M227,539.52c42.43-15.63,82.41-7.5,82.41-7.5-5.85,8-61.37,7.5-61.37,7.5Z" transform="translate(-151.72 -12.48)"/><path class="cls-32" d="M235.92,540.9c21.57-23.49,72.4-34.8,72.4-34.8-15,15.34-36.59,28.79-36.59,28.79S214.35,564.38,235.92,540.9Z" transform="translate(-151.72 -12.48)"/><path class="cls-33" d="M231.57,538.33C244.2,515,292.26,491.9,292.26,491.9c0,7.36-38.94,41.62-38.94,41.62S219,561.68,231.57,538.33Z" transform="translate(-151.72 -12.48)"/><path class="cls-34" d="M231.93,540.64c-9.46-1.73-44.54-36.12-44.54-36.12,9.11,1.75,44.54,24.19,44.54,24.19S241.38,542.37,231.93,540.64Z" transform="translate(-151.72 -12.48)"/><path class="cls-35" d="M215.09,540.79c-11.92.51-50.15-23.29-50.15-23.29,11.44,0,37.69,6.93,50.53,10.52A19,19,0,0,1,226.88,537C233.74,549.08,225.48,540.35,215.09,540.79Z" transform="translate(-151.72 -12.48)"/><path class="cls-36" d="M170.91,530.46c3.56-.28,26.5.74,36.36,1.2a17.42,17.42,0,0,1,10.6,4.17c4.25,3.67,3,6.42-2.78,7.6C207.38,545,166.35,530.82,170.91,530.46Z" transform="translate(-151.72 -12.48)"/><path class="cls-37" d="M232.91,536.68a30.55,30.55,0,0,1-.49-11c1.67-12.49,7.48-51.17,16-57,0,0,3.84,50.12-4.21,67C238.16,548.27,234.55,543.59,232.91,536.68Z" transform="translate(-151.72 -12.48)"/><path class="cls-38" d="M233,543.55c-4.83-4.59-24.47-49.19-24.47-49.19,18.39,10.75,26.58,32.57,26.58,32.57S237.81,548.13,233,543.55Z" transform="translate(-151.72 -12.48)"/><polygon class="cls-39" points="126.54 534.45 120.48 573.87 48.92 573.87 42.85 534.45 126.54 534.45"/><path class="cls-40" d="M194.58,546.93h83.68l-6.06,39.42H257.15s-12.87-25.24-60.82-28Z" transform="translate(-151.72 -12.48)"/><rect class="cls-39" x="191.25" y="538.45" width="90.33" height="13.17" transform="translate(321.12 1077.58) rotate(180)"/><g class="cls-41"><path class="cls-42" d="M490.55,131a59.83,59.83,0,0,0-68.9-59.55A77.7,77.7,0,0,0,272,67.15c-1.16-.05-2.31-.09-3.48-.09a83.39,83.39,0,0,0-14.43,165.52,31.86,31.86,0,0,0,48.8,20.67,83.37,83.37,0,0,0,139.13-62c0-.39,0-.77,0-1.16A60.25,60.25,0,0,0,490.55,131Z" transform="translate(-151.72 -12.48)"/></g><g class="cls-43"><path class="cls-44" d="M526.73,249.48a40.79,40.79,0,1,1-40.79-40.79A40.79,40.79,0,0,1,526.73,249.48Z" transform="translate(-151.72 -12.48)"/></g><g class="cls-45"><circle class="cls-46" cx="401.47" cy="282.13" r="19.97"/></g><path class="cls-47" d="M323.88,164.35a37.83,37.83,0,0,1,2.63-14.46q2.64-6.4,10.85-11.18,2.46-1.47,6.08-3.36a49.71,49.71,0,0,0,7.06-4.52,25.91,25.91,0,0,0,5.84-6.17,14.23,14.23,0,0,0,2.38-8.13,13.4,13.4,0,0,0-1.32-6.08A13.62,13.62,0,0,0,354,106a14.28,14.28,0,0,0-5-2.72,19.43,19.43,0,0,0-5.83-.9,16.94,16.94,0,0,0-6.57,1.23,22.05,22.05,0,0,0-5.34,3.13,26.19,26.19,0,0,0-4.28,4.27,46.9,46.9,0,0,0-3.2,4.52l-14.29-9.86a31.9,31.9,0,0,1,5.66-9A34.68,34.68,0,0,1,323.14,90a37.66,37.66,0,0,1,9.78-4.11,42.15,42.15,0,0,1,10.85-1.4,42.83,42.83,0,0,1,12.32,1.81A31.26,31.26,0,0,1,367,92.05a29.77,29.77,0,0,1,7.88,10.1,32.92,32.92,0,0,1,3,14.71,31.75,31.75,0,0,1-1.23,9.28,25.85,25.85,0,0,1-3.53,7.32,31.28,31.28,0,0,1-5.42,5.91,62.51,62.51,0,0,1-7.07,5.09q-3.29,2-6.57,3.78a40,40,0,0,0-6,4,19.41,19.41,0,0,0-4.43,5.09,13.28,13.28,0,0,0-1.73,7Zm.33,38.28V180h18.24v22.67Z" transform="translate(-151.72 -12.48)"/></g></svg>