<svg id="Layer_1" data-name="Layer 1" xmlns="http://www.w3.org/2000/svg" viewBox="0 0 650 950"><defs><style>.cls-1{fill:#eea886;}.cls-2{fill:#524f59;}.cls-3{fill:#38373d;}.cls-4{fill:#232729;}.cls-5{fill:#82817f;}.cls-6{fill:#244671;}.cls-7{fill:#00ac94;}.cls-8{fill:#a77961;}.cls-9{fill:#395a71;}.cls-10{fill:#323657;}.cls-11{fill:#e6a564;}.cls-12{fill:#d9c8c0;}.cls-13{fill:#3d4145;}.cls-14{fill:#f6e3da;}.cls-15{fill:#de9e7e;}.cls-16{fill:#182c47;}.cls-17{fill:#4e9688;}.cls-18{fill:#0d5684;}.cls-19,.cls-20,.cls-21{fill:none;stroke-miterlimit:10;}.cls-19{stroke:#b2b2ad;}.cls-20{stroke:#6f7272;}.cls-21{stroke:#faf9f5;}</style></defs><path class="cls-1" d="M269.57,276.47s-5.35-9.87-7.2-12.08,2.84-7.67,6.6-1.84,6.07,9.56,6.07,9.56Z"/><path class="cls-2" d="M275,286.44l-19-42.9a5.05,5.05,0,0,1,3.53-6.88l22.35-6a5.5,5.5,0,0,1,6.65,3.33l15.45,44.36a5.08,5.08,0,0,1-3.82,6.55l-18.84,4.52A5.52,5.52,0,0,1,275,286.44Z"/><path class="cls-1" d="M268.48,283.28s-2.25-3.67,3.83-10.58c8.08-9.17,19.58-19.94,22.54-19.74,4.27.27,3.72,3.47-1.83,8.36s-7.4,6.48-7.4,6.48,12.25-6.74,15.84-6.54,5.39,3.45,3.55,4.91a58.5,58.5,0,0,1-6.62,4s5.53-2.18,7.09-.36c1.15,1.35,2.42,3.44-2.29,6.59,0,0,5.29,2.11,1.21,6.73s-4.44,7.27-3.26,12.79-1.81,14.59-1.81,14.59l-18.49-1.12s-3.32-13.65-5.85-16.87S268.48,283.28,268.48,283.28Z"/><path class="cls-3" d="M286.13,236.52a2.08,2.08,0,0,1-1.89,2.29,2.15,2.15,0,0,1-2.43-1.78,2.08,2.08,0,0,1,1.88-2.29A2.16,2.16,0,0,1,286.13,236.52Z"/><path class="cls-4" d="M389.33,887.14s-9.18,12.94-22.06,15.73-25.57,7.24-25.66,14.89,37.23,12.22,52,4.5c22-11.51,24.23-8,26.67-13.8s-2.93-21.14-2.77-23C417.67,883.23,389.33,887.14,389.33,887.14Z"/><path class="cls-5" d="M390.75,880.76s-1.67,6.25-1.42,6.38,29,3.36,28.15-1.65c-.71-4.07-1.71-8.48-1.71-8.48Z"/><path class="cls-4" d="M460,887.89s-6.55,12.37-17.74,16.58c-12,4.51-21.55,9.68-21.33,17.14s29.24,15,50.35.7c13.34-9,17.57-9.08,19.71-14.78s-3.72-20.48-3.64-22.27C487.41,883.05,460,887.89,460,887.89Z"/><path class="cls-5" d="M459.63,881.46s.08,6.31.33,6.43,28.06,2.28,27.35-2.63a38.4,38.4,0,0,0-2.7-8.6Z"/><path class="cls-6" d="M357.68,503.55S340.52,593.36,334.62,626c-5,27.82-9,69.73-6.59,89.81,3,24.86,57.15,158.25,55.58,165.54s40.79,3.29,40.79,3.29-41.61-157.8-35.93-184.55c4.2-19.82,27.07-139.47,32.71-132.72S433.84,691.62,438,711.12s17,173.56,17,173.56,28.71,4,36.38-2.12c0,0,3.49-131.55.82-168.11-1-13.93,17.34-167-6.19-228.68C473.61,453.2,357.68,503.55,357.68,503.55Z"/><path class="cls-7" d="M561.11,409.07c0,1.51-3,7.54-7.85,16.21-7-13.29-12.59-24.19-14.4-28.21-6-13.21-36.58-43.51-36.58-43.51a.28.28,0,0,1,0,.06s0,0,0,0v0a.61.61,0,0,0,0,.13,2.5,2.5,0,0,0-.08.25c0,.05,0,.11-.05.16l0,.13c-1.67,5.84-11.91,42.42-12.29,60.43-.41,19.6-2.23,75.19-2.23,75.19s-60.69,12.6-129.86,13.57c0,0-.7-15.43-.95-38.61-.11-9.71,1.75-27.91,1.24-44.8,0-.09,0-.18,0-.26s0-.43,0-.64a1.7,1.7,0,0,1,0-.22v0c-.33-9.28.56-18.44-1.27-25.13L355.13,385c-4.06,13.06-25.29,36.35-25.29,36.35-34,41.63-48.21-104.64-55.19-114.48l31.74-8.26,16.09,60.69,7.36-20h0l7.86-21.37c.88-.66,10.25-30.32,17.85-33.73,7.76-3.47,27.23-11.67,35.7-16,4.32-2.23,8.4-4.26,11.93-5.78l.55-.23h0l9.72-4.18h0l2.54-.23c8.14-.73,33.46-3,41.94-3.43.69,0,1.28-.06,1.73-.07s.68,0,.86,0c1.07.06,6.29,1.78,13.15,4.23h0l.78.29,1,.34,1.82.66,3.77,1.39,1.34.5c13.72,5.13,29.06,12.06,33.18,14,8.18,3.84,11.5,11,19.07,32.18,11.48,34.63,26,87.63,26.48,100.7C561.1,408.69,561.11,408.89,561.11,409.07Z"/><path class="cls-1" d="M460.32,250.49C460,267.65,424.68,277,424.68,277S409.92,259.62,413.45,258c1.38-.66,1.95-3.26,2.12-6.17a57.14,57.14,0,0,0-.2-7.78c-.11-1.22-.21-2-.21-2s5-5,11.46-11c11.2-10.43,26.61-23.8,26.63-18.48a4.57,4.57,0,0,1-.13,1C450.41,225.52,460.32,250.49,460.32,250.49Z"/><path class="cls-8" d="M446.73,225.36h0c-.07.1-1.56,2.21-4.12,5.23-5.41,6.42-15.59,16.95-27,21.19a57.14,57.14,0,0,0-.2-7.78,19.87,19.87,0,0,1-3.51-.4A103.17,103.17,0,0,1,419.53,233l7.09-2Z"/><path class="cls-1" d="M453.51,212.78c-3.06,6.25-5.95,10.78-6.78,12.58h0a22.16,22.16,0,0,1-4.12,5.23c-5.81,5.9-16.62,13.68-27.24,13.41a19.87,19.87,0,0,1-3.51-.4c-4.29-.88-9.35-2.76-12.14-7.9-22-40.57-6.07-73.75-6.07-73.75s60.18-16,69.59,1C469.85,175,460.68,198.09,453.51,212.78Z"/><path class="cls-9" d="M393.65,162s-5.59-.29-7-10.27,1.39-12.59,1.39-12.59,24.85-9.79,33.77-11.06,30.86-2.5,36,3c0,0,12.49-2.73,15.9,16.79,5.4,31-18.4,61.07-18.4,61.07s.2-20.24-4.54-22.92S442,189.7,442,189.7l-9.7,1.64s14.73-30-2.94-31.05S403.76,163.69,393.65,162Z"/><path class="cls-1" d="M442.23,181.63c.93-8.91,18-12.32,16.9-3s-9.58,18.33-13.47,18S441.53,188.43,442.23,181.63Z"/><path class="cls-10" d="M424.73,277s3.79,14.26,2.43,18.25c0,0-8.33,2.85-14.31-.71A62.24,62.24,0,0,1,424.73,277Z"/><path class="cls-11" d="M404.65,294.28s11.8,8.58,35.56,1.49L424.68,277Z"/><path class="cls-12" d="M410.75,291.29s7.75,5.64,23.36,1L424.73,277Z"/><path class="cls-13" d="M475.39,510.47a56.06,56.06,0,0,0,18.72,13.22l38.83-65.76-20.12-36.62S476.3,504.05,475.39,510.47Z"/><path class="cls-14" d="M474.55,258.63l-14.23-8.14s-.4,7.35-35.64,26.54l10,26.54Z"/><path class="cls-14" d="M415.31,254.2s.55,7.93,9.37,22.83l-19.53,24-1.42-38.88Z"/><path class="cls-15" d="M484.75,501.07s-4.62,10.71-10.72,12.41-11.87,5.13-14.5,9.16,29.83,15.21,29.83,15.21,13.35-19.71,12.2-28.25S484.75,501.07,484.75,501.07Z"/><path class="cls-7" d="M502.06,354.36s20.09,27.6,17,54L471.93,509.07s14.91,12.11,27.53,17.07c0,0,55.06-100.81,61.65-117.06C561.11,409.08,539.39,348.17,502.06,354.36Z"/><polygon class="cls-6" points="456.6 522.26 499.13 541.98 497.5 557.96 452.15 530.49 456.6 522.26"/><path class="cls-16" d="M454.29,884.68s24.84,5.24,37.81-2.12l.77-12a162.65,162.65,0,0,1-40.64,1.55Z"/><path class="cls-16" d="M382.64,882.65s9.13,7.79,42.86,2l-3.68-14.14s-21.48,5-41.7,0Z"/><path class="cls-17" d="M329.84,339.28c0,5.92-2,45.22-2,45.22l-5.39-25.24Z"/><path class="cls-18" d="M338.64,131.9h0a19,19,0,0,1,0-19.17H325.75S325.75,127.44,338.64,131.9Z"/><path class="cls-18" d="M200.19,115.12H336c19.11,0,34.59-16.46,34.59-36.76h0c0-20.3-15.48-36.76-34.59-36.76H200.19c-19.11,0-34.59,16.46-34.59,36.76h0C165.6,98.66,181.08,115.12,200.19,115.12Z"/><line class="cls-19" x1="204.31" y1="78.36" x2="333.21" y2="78.36"/><line class="cls-20" x1="204.31" y1="93.48" x2="333.21" y2="93.48"/><line class="cls-21" x1="205.06" y1="63.24" x2="333.96" y2="63.24"/></svg>